<svg xmlns="http://www.w3.org/2000/svg" id="Layer_1" data-name="Layer 1" viewBox="93.32 47.61 893.4 172.51"><defs><style>.cls-1{fill:#fff;}</style></defs><path class="cls-1" d="M327.16,183.85V102.72h-26V86.5H372v16.22h-26.1v81.13Z"/><path class="cls-1" d="M378.18,106.85v77h18.73v-77Z"/><path class="cls-1" d="M398.37,94.1a7.88,7.88,0,0,1-2.76,6.5c-1.84,1.51-4.56,2.27-8.14,2.27q-10.89,0-10.9-8.77,0-8.92,10.9-8.91T398.37,94.1Z"/><path class="cls-1" d="M441,184q-13,0-21.39-5.31a32.21,32.21,0,0,1-12.47-14.38A49.23,49.23,0,0,1,403.06,144a52.19,52.19,0,0,1,4-20.58,33.67,33.67,0,0,1,12.24-15q8.27-5.61,21.1-5.61,11.5,0,18.73,4.36a25.37,25.37,0,0,1,10.4,11.35,28.15,28.15,0,0,1,2.28,15L455.42,135q.15-8.42-4.05-12.76a14.8,14.8,0,0,0-11.14-4.35,16.87,16.87,0,0,0-13,5.83q-5.31,5.82-5.31,19.39,0,13.28,5.31,19.84a17.12,17.12,0,0,0,14,6.56q6.19,0,9.74-2.8a14.68,14.68,0,0,0,4.94-7.23,23,23,0,0,0,1-9.14l17.4,1a32.25,32.25,0,0,1-2.65,16.3,26,26,0,0,1-11.07,11.87Q452.92,184,441,184Z"/><path class="cls-1" d="M480.58,183.85V82.07h18.29v55.17a47.26,47.26,0,0,0,13.57-8.41,50.81,50.81,0,0,0,9.36-11,33.46,33.46,0,0,0,4.65-11.13h21.24a45.26,45.26,0,0,1-6.86,14.45A57.83,57.83,0,0,1,528.37,134a56,56,0,0,1-17.26,8.85V144c6.2-.68,11.28-.59,15.27.3a21.12,21.12,0,0,1,9.58,4.5,20.89,20.89,0,0,1,5.53,7.67,56.09,56.09,0,0,1,3.1,9.81l3.69,17.55H528.07l-1.92-12.39a46.42,46.42,0,0,0-2.65-10.18,14.8,14.8,0,0,0-5.9-7.08q-4.12-2.65-12-2.65h-6.78v32.3Z"/><path class="cls-1" d="M586,184q-13.27,0-21.61-5.24a31.13,31.13,0,0,1-12.24-14.16,49.2,49.2,0,0,1-3.91-20,54.89,54.89,0,0,1,3.84-20.73A33.84,33.84,0,0,1,564,108.63q8-5.76,20.72-5.76,12.1,0,19.92,5.46a29.61,29.61,0,0,1,11.13,15q3.32,9.51,1.7,21.91l-51,.73q.89,23.61,19.92,23.6,6.2,0,9.73-2.36a12.46,12.46,0,0,0,4.94-6,17.84,17.84,0,0,0,1.11-7.67l17.25,1a29.59,29.59,0,0,1-2.94,14.16,25.44,25.44,0,0,1-10.7,11.06Q598.29,184,586,184Zm-1.33-65.93q-7.66,0-11.87,4.57a24.49,24.49,0,0,0-5.68,12.24l33.34-.59q-.6-7.66-4.5-11.95T584.71,118.07Z"/><path class="cls-1" d="M761.59,106.85l-13.28,61.07h-.74L735,106.85H714.09L701,167.92h-.88l-12.39-61.07H647V89.74H635.62l-.29,3.69q-.6,7.53-3.69,11.29t-10,4.49H619.4v12.54h9v37.91a41.36,41.36,0,0,0,1,8.63,25.27,25.27,0,0,0,3.47,8.41,18.32,18.32,0,0,0,7.3,6.34q4.8,2.43,12.47,2.43a38.77,38.77,0,0,0,6.19-.52,52.63,52.63,0,0,0,7.08-1.69v-17a14.22,14.22,0,0,1-4.5,2,18.94,18.94,0,0,1-4.64.66,10.42,10.42,0,0,1-6.94-2.36q-2.81-2.35-2.8-8.41v-36h24.88l15.83,61.66h24.48l11.66-56.94h.74l11.2,56.94h24.64l20.06-77Z"/><path class="cls-1" d="M799.81,185.91a29.06,29.06,0,0,1-11.13-2.14,18.3,18.3,0,0,1-8.41-6.78q-3.18-4.65-3.17-12.17,0-6.93,2.65-11.36a20,20,0,0,1,7.23-7.08,41,41,0,0,1,10.25-4.13c3.79-1,7.69-1.81,11.73-2.5q8-1.33,11.95-2.22t5.3-2.14a4.51,4.51,0,0,0,1.33-3.46,10.47,10.47,0,0,0-4-8.85,16.17,16.17,0,0,0-10.11-3.1,20,20,0,0,0-7.52,1.48,14.09,14.09,0,0,0-6.19,4.86c-1.68,2.27-2.56,5.36-2.66,9.3L780.2,134a30.7,30.7,0,0,1,3.17-14.08,24.36,24.36,0,0,1,8-9,33.08,33.08,0,0,1,10.84-4.72,50.6,50.6,0,0,1,11.66-1.4q15.33,0,23.6,8.48t8.26,25v14.16q.13,7.81.14,15.71v15.71H829.31q.15-6,.37-11.95t.37-12.39h-1a31.32,31.32,0,0,1-4.72,13.35,28.25,28.25,0,0,1-24.49,13Zm6.79-14.3a19.84,19.84,0,0,0,9.51-2.59,21.22,21.22,0,0,0,8-7.89q3.24-5.31,3.39-13.57v-1.32a33.45,33.45,0,0,1-7.15,2.06l-8.33,1.48a47.34,47.34,0,0,0-8,2.06,15.47,15.47,0,0,0-6,3.69,8.91,8.91,0,0,0-2.29,6.49,8.77,8.77,0,0,0,2.95,7.08A11.68,11.68,0,0,0,806.6,171.61Z"/><path class="cls-1" d="M850.69,183.78V168l39.38-45v-.88H851.58V106.79H912.2v15.93L873,167.7v.74h39.53v15.34Z"/><path class="cls-1" d="M953.33,184q-13.27,0-21.61-5.24a31.07,31.07,0,0,1-12.24-14.16,49.2,49.2,0,0,1-3.91-20,54.89,54.89,0,0,1,3.83-20.73,33.91,33.91,0,0,1,11.87-15.26q8-5.76,20.73-5.76,12.09,0,19.91,5.46a29.69,29.69,0,0,1,11.14,15q3.32,9.51,1.69,21.91l-51,.73q.88,23.61,19.91,23.6,6.2,0,9.74-2.36a12.51,12.51,0,0,0,4.94-6,17.69,17.69,0,0,0,1.1-7.67l17.26,1a29.6,29.6,0,0,1-2.95,14.16A25.41,25.41,0,0,1,973,179.72Q965.57,184,953.33,184ZM952,118.07c-5.12,0-9.07,1.52-11.88,4.57a24.48,24.48,0,0,0-5.67,12.24l33.33-.59q-.59-7.66-4.5-11.95C960.68,119.49,956.91,118.07,952,118.07Z"/><path class="cls-1" d="M150,185.78l.45-66.42-15.58,0a13.36,13.36,0,0,1-26.59.07l-14.94,0,.09,24a26,26,0,0,0,7.42,18.08l57.33,58.6C148.42,209.61,149.9,197.73,150,185.78Z"/><path class="cls-1" d="M127.67,104.28l66.43.45,0-15.58a13.37,13.37,0,0,1-.07-26.6l0-14.94-23.95.1a26.05,26.05,0,0,0-18.09,7.42L93.32,112.46C103.85,102.71,115.73,104.2,127.67,104.28Z"/><path class="cls-1" d="M232.56,163.47,166.14,163l0,15.58a13.37,13.37,0,0,1,.07,26.6l0,14.94,24-.1a26,26,0,0,0,18.08-7.42l58.6-57.33C256.39,165,244.51,163.55,232.56,163.47Z"/><path class="cls-1" d="M210.24,82l-.44,66.42,11.57,0,4,0a13.36,13.36,0,0,1,26.54-.45c0,.13,0,.26,0,.38l15,0-.1-24a26,26,0,0,0-7.42-18.08h0l-7.46-7.62-49.87-51C211.81,58.15,210.32,70,210.24,82Z"/></svg>