<svg width="220" height="40" viewBox="0 0 220 40" fill="none" xmlns="http://www.w3.org/2000/svg">
<rect width="40" height="40" rx="10" fill="white"/>
<path opacity="0.4" d="M28.3331 17.6749V22.3249C28.3331 25.7416 27.2915 26.7832 23.8748 26.7832H18.2581V24.2666C18.2581 23.9499 17.9915 23.6832 17.6748 23.6832V16.3166C17.9915 16.3166 18.2581 16.0499 18.2581 15.7332V13.2166H23.8748C27.2915 13.2166 28.3331 14.2582 28.3331 17.6749Z" fill="#E45B00"/>
<path d="M25.3917 19.9166C25.5333 19.7833 25.5833 19.575 25.525 19.3917C25.4667 19.2 25.3083 19.0667 25.1083 19.0417L24.0417 18.8833C24 18.875 23.9667 18.85 23.95 18.8167L23.475 17.85C23.3917 17.675 23.2083 17.5667 23.0167 17.5667C22.8167 17.5667 22.6417 17.675 22.55 17.85L22.075 18.8167C22.0583 18.8583 22.0167 18.8833 21.975 18.8833L20.9083 19.0417C20.7167 19.0667 20.55 19.2083 20.4917 19.3917C20.4333 19.5833 20.4833 19.7833 20.625 19.9166L21.4 20.6667C21.4333 20.6917 21.4417 20.7416 21.4333 20.7833L21.25 21.8417C21.2167 22.0333 21.2917 22.2333 21.4583 22.3417C21.55 22.4083 21.65 22.4417 21.7583 22.4417C21.8417 22.4417 21.925 22.425 22 22.3833L22.9583 21.8833C22.9917 21.8667 23.0417 21.8667 23.075 21.8833L24.0333 22.3833C24.2083 22.475 24.4167 22.4583 24.575 22.3417C24.7333 22.225 24.8167 22.0333 24.7833 21.8333L24.6 20.775C24.5917 20.7333 24.6083 20.6917 24.6333 20.6583L25.3917 19.9166Z" fill="#E45B00"/>
<path d="M17.6745 16.3166V23.6832C17.3579 23.6832 17.0912 23.9499 17.0912 24.2666V26.7832H16.1245C12.8329 26.7832 11.7495 25.7999 11.6745 22.7332C11.6662 22.5749 11.7329 22.4249 11.8412 22.3166C11.9495 22.1999 12.1079 22.1416 12.2579 22.1416C13.4245 22.1416 14.3829 21.1832 14.3829 20.0082C14.3829 18.8332 13.4245 17.8666 12.2579 17.8666C12.0912 17.8666 11.9495 17.8082 11.8412 17.6916C11.7329 17.5832 11.6662 17.4249 11.6745 17.2749C11.7495 14.1999 12.8329 13.2166 16.1245 13.2166H17.0912V15.7332C17.0912 16.0582 17.3579 16.3166 17.6745 16.3166Z" fill="#E45B00"/>
<path d="M51.016 27.5V11.66H54.496V27.5H51.016ZM46.432 14.564V11.66H59.104V14.564H46.432ZM61.0354 27.5V14.9H64.4914V27.5H61.0354ZM62.7634 13.1C62.0914 13.1 61.5714 12.964 61.2034 12.692C60.8514 12.404 60.6754 11.988 60.6754 11.444C60.6754 10.884 60.8514 10.468 61.2034 10.196C61.5714 9.908 62.0914 9.764 62.7634 9.764C63.4514 9.764 63.9714 9.908 64.3234 10.196C64.6914 10.468 64.8754 10.884 64.8754 11.444C64.8754 11.988 64.6914 12.404 64.3234 12.692C63.9714 12.964 63.4514 13.1 62.7634 13.1ZM73.3362 27.836C72.2482 27.836 71.2962 27.676 70.4802 27.356C69.6802 27.036 69.0082 26.588 68.4642 26.012C67.9202 25.436 67.5122 24.756 67.2402 23.972C66.9682 23.172 66.8322 22.3 66.8322 21.356C66.8322 20.364 66.9682 19.46 67.2402 18.644C67.5282 17.828 67.9362 17.116 68.4642 16.508C69.0082 15.884 69.6802 15.404 70.4802 15.068C71.2802 14.732 72.1922 14.564 73.2162 14.564C74.2882 14.564 75.2002 14.74 75.9522 15.092C76.7202 15.444 77.3362 15.932 77.8002 16.556C78.2642 17.18 78.5602 17.9 78.6882 18.716L75.5202 19.676C75.4722 19.164 75.3442 18.724 75.1362 18.356C74.9282 17.988 74.6402 17.716 74.2722 17.54C73.9202 17.364 73.5202 17.276 73.0722 17.276C72.6242 17.276 72.2322 17.364 71.8962 17.54C71.5602 17.7 71.2722 17.956 71.0322 18.308C70.8082 18.644 70.6322 19.06 70.5042 19.556C70.3922 20.036 70.3362 20.588 70.3362 21.212C70.3362 22.076 70.4482 22.812 70.6722 23.42C70.8962 24.012 71.2322 24.468 71.6802 24.788C72.1442 25.092 72.7122 25.244 73.3842 25.244C74.0082 25.244 74.5042 25.116 74.8722 24.86C75.2562 24.604 75.5362 24.276 75.7122 23.876C75.9042 23.476 76.0162 23.068 76.0482 22.652L79.0722 23.252C79.0242 23.892 78.8722 24.492 78.6162 25.052C78.3602 25.596 77.9922 26.084 77.5122 26.516C77.0482 26.932 76.4722 27.26 75.7842 27.5C75.0962 27.724 74.2802 27.836 73.3362 27.836ZM80.9808 27.5V10.388H84.3648V19.868C84.8768 19.532 85.3568 19.172 85.8047 18.788C86.2688 18.388 86.6848 17.972 87.0528 17.54C87.4368 17.108 87.7648 16.668 88.0368 16.22C88.3248 15.772 88.5648 15.332 88.7568 14.9H92.7168C92.4928 15.508 92.1888 16.124 91.8047 16.748C91.4208 17.356 90.9568 17.916 90.4128 18.428C89.8848 18.94 89.2688 19.388 88.5648 19.772C87.8768 20.14 87.1088 20.404 86.2608 20.564V20.924C87.3328 20.748 88.2128 20.772 88.9008 20.996C89.6048 21.204 90.1808 21.54 90.6288 22.004C91.0768 22.468 91.4288 23.012 91.6848 23.636C91.9568 24.244 92.1968 24.86 92.4048 25.484L92.9568 27.5H89.2128L88.9008 26.228C88.6928 25.46 88.4528 24.788 88.1808 24.212C87.9248 23.636 87.5808 23.188 87.1488 22.868C86.7168 22.548 86.1168 22.388 85.3488 22.388H84.3648V27.5H80.9808ZM100.524 27.836C99.4683 27.836 98.5403 27.692 97.7403 27.404C96.9403 27.1 96.2603 26.676 95.7003 26.132C95.1403 25.572 94.7163 24.9 94.4283 24.116C94.1403 23.316 93.9963 22.42 93.9963 21.428C93.9963 20.436 94.1323 19.524 94.4043 18.692C94.6923 17.86 95.1003 17.132 95.6283 16.508C96.1723 15.884 96.8363 15.404 97.6203 15.068C98.4043 14.732 99.2923 14.564 100.284 14.564C101.26 14.564 102.116 14.724 102.852 15.044C103.604 15.364 104.228 15.836 104.724 16.46C105.22 17.084 105.58 17.844 105.804 18.74C106.044 19.636 106.124 20.668 106.044 21.836L96.2283 21.908V20.012L103.98 19.94L102.852 20.924C102.948 20.076 102.892 19.388 102.684 18.86C102.476 18.316 102.156 17.916 101.724 17.66C101.308 17.388 100.836 17.252 100.308 17.252C99.7003 17.252 99.1723 17.42 98.7243 17.756C98.2763 18.076 97.9243 18.54 97.6683 19.148C97.4283 19.756 97.3083 20.492 97.3083 21.356C97.3083 22.7 97.5963 23.692 98.1723 24.332C98.7643 24.972 99.5483 25.292 100.524 25.292C100.972 25.292 101.348 25.236 101.652 25.124C101.972 24.996 102.228 24.836 102.42 24.644C102.628 24.452 102.788 24.236 102.9 23.996C103.012 23.74 103.1 23.484 103.164 23.228L106.188 23.828C106.076 24.42 105.884 24.964 105.612 25.46C105.34 25.94 104.972 26.356 104.508 26.708C104.044 27.06 103.484 27.332 102.828 27.524C102.188 27.732 101.42 27.836 100.524 27.836ZM113.177 27.788C111.753 27.788 110.705 27.42 110.033 26.684C109.377 25.932 109.049 24.748 109.049 23.132V17.612H107.273L107.321 14.972H108.449C108.993 14.956 109.393 14.86 109.649 14.684C109.905 14.492 110.065 14.164 110.129 13.7L110.393 12.092H112.361V14.9H115.529V17.708H112.361V22.964C112.361 23.54 112.497 23.964 112.769 24.236C113.057 24.492 113.473 24.62 114.017 24.62C114.305 24.62 114.585 24.588 114.857 24.524C115.145 24.46 115.401 24.356 115.625 24.212V27.404C115.129 27.564 114.673 27.668 114.257 27.716C113.857 27.764 113.497 27.788 113.177 27.788ZM120.416 27.5L116.864 11.66H120.632L122.96 24.5H123.224L125.96 11.66H130.304L133.088 24.5H133.328L135.68 11.66H139.256L135.656 27.5H130.832L128.192 14.684H127.976L125.36 27.5H120.416ZM143.511 27.836C142.823 27.836 142.207 27.7 141.663 27.428C141.119 27.156 140.687 26.756 140.367 26.228C140.047 25.7 139.887 25.044 139.887 24.26C139.887 23.572 140.023 22.996 140.295 22.532C140.567 22.052 140.959 21.668 141.471 21.38C141.983 21.092 142.607 20.852 143.343 20.66C144.079 20.468 144.911 20.308 145.839 20.18C146.383 20.084 146.823 19.996 147.159 19.916C147.495 19.836 147.743 19.716 147.903 19.556C148.063 19.396 148.143 19.164 148.143 18.86C148.143 18.396 147.975 18.012 147.639 17.708C147.319 17.388 146.815 17.228 146.127 17.228C145.695 17.228 145.279 17.308 144.879 17.468C144.479 17.612 144.143 17.852 143.871 18.188C143.599 18.508 143.407 18.924 143.295 19.436L140.247 18.596C140.407 17.892 140.663 17.292 141.015 16.796C141.367 16.3 141.799 15.884 142.311 15.548C142.839 15.212 143.431 14.964 144.087 14.804C144.759 14.644 145.471 14.564 146.223 14.564C147.439 14.564 148.439 14.764 149.223 15.164C150.007 15.564 150.591 16.18 150.975 17.012C151.359 17.828 151.551 18.884 151.551 20.18V22.34C151.551 22.9 151.559 23.468 151.575 24.044C151.591 24.62 151.615 25.204 151.647 25.796C151.695 26.372 151.743 26.94 151.791 27.5H148.743C148.679 27.068 148.623 26.588 148.575 26.06C148.527 25.532 148.495 24.988 148.479 24.428H148.071C147.879 25.052 147.567 25.628 147.135 26.156C146.719 26.668 146.207 27.076 145.599 27.38C144.991 27.684 144.295 27.836 143.511 27.836ZM144.975 25.316C145.279 25.316 145.591 25.268 145.911 25.172C146.231 25.06 146.535 24.9 146.823 24.692C147.127 24.468 147.399 24.196 147.639 23.876C147.879 23.556 148.071 23.188 148.215 22.772L148.167 20.924L148.719 21.02C148.463 21.228 148.143 21.396 147.759 21.524C147.391 21.636 146.999 21.724 146.583 21.788C146.183 21.852 145.783 21.924 145.383 22.004C144.983 22.084 144.615 22.188 144.279 22.316C143.959 22.444 143.703 22.62 143.511 22.844C143.335 23.068 143.247 23.372 143.247 23.756C143.247 24.236 143.407 24.62 143.727 24.908C144.047 25.18 144.463 25.316 144.975 25.316ZM153.714 27.5V24.596L160.17 17.996V17.66H153.834V14.9H164.514V17.756L158.01 24.404V24.716H164.586V27.5H153.714ZM172.571 27.836C171.515 27.836 170.587 27.692 169.787 27.404C168.987 27.1 168.307 26.676 167.747 26.132C167.187 25.572 166.763 24.9 166.475 24.116C166.187 23.316 166.043 22.42 166.043 21.428C166.043 20.436 166.179 19.524 166.451 18.692C166.739 17.86 167.147 17.132 167.675 16.508C168.219 15.884 168.883 15.404 169.667 15.068C170.451 14.732 171.339 14.564 172.331 14.564C173.307 14.564 174.163 14.724 174.899 15.044C175.651 15.364 176.275 15.836 176.771 16.46C177.267 17.084 177.627 17.844 177.851 18.74C178.091 19.636 178.171 20.668 178.091 21.836L168.275 21.908V20.012L176.027 19.94L174.899 20.924C174.995 20.076 174.939 19.388 174.731 18.86C174.523 18.316 174.203 17.916 173.771 17.66C173.355 17.388 172.883 17.252 172.355 17.252C171.747 17.252 171.219 17.42 170.771 17.756C170.323 18.076 169.971 18.54 169.715 19.148C169.475 19.756 169.355 20.492 169.355 21.356C169.355 22.7 169.643 23.692 170.219 24.332C170.811 24.972 171.595 25.292 172.571 25.292C173.019 25.292 173.395 25.236 173.699 25.124C174.019 24.996 174.275 24.836 174.467 24.644C174.675 24.452 174.835 24.236 174.947 23.996C175.059 23.74 175.147 23.484 175.211 23.228L178.235 23.828C178.123 24.42 177.931 24.964 177.659 25.46C177.387 25.94 177.019 26.356 176.555 26.708C176.091 27.06 175.531 27.332 174.875 27.524C174.235 27.732 173.467 27.836 172.571 27.836Z" fill="white"/>
</svg>
