<svg width="220" height="40" viewBox="0 0 220 40" fill="none" xmlns="http://www.w3.org/2000/svg">
<rect width="40" height="40" rx="10" fill="#E45B00"/>
<path opacity="0.4" d="M28.3333 17.6749V22.3249C28.3333 25.7416 27.2917 26.7832 23.875 26.7832H18.2583V24.2666C18.2583 23.9499 17.9917 23.6832 17.675 23.6832V16.3166C17.9917 16.3166 18.2583 16.0499 18.2583 15.7332V13.2166H23.875C27.2917 13.2166 28.3333 14.2582 28.3333 17.6749Z" fill="white"/>
<path d="M25.3917 19.9166C25.5333 19.7833 25.5833 19.575 25.525 19.3917C25.4667 19.2 25.3083 19.0667 25.1083 19.0417L24.0417 18.8833C24 18.875 23.9667 18.85 23.95 18.8167L23.475 17.85C23.3917 17.675 23.2083 17.5667 23.0167 17.5667C22.8167 17.5667 22.6417 17.675 22.55 17.85L22.075 18.8167C22.0583 18.8583 22.0167 18.8833 21.975 18.8833L20.9083 19.0417C20.7167 19.0667 20.55 19.2083 20.4917 19.3917C20.4333 19.5833 20.4833 19.7833 20.625 19.9166L21.4 20.6667C21.4333 20.6917 21.4417 20.7416 21.4333 20.7833L21.25 21.8417C21.2167 22.0333 21.2917 22.2333 21.4583 22.3417C21.55 22.4083 21.65 22.4417 21.7583 22.4417C21.8417 22.4417 21.925 22.425 22 22.3833L22.9583 21.8833C22.9917 21.8667 23.0417 21.8667 23.075 21.8833L24.0333 22.3833C24.2083 22.475 24.4167 22.4583 24.575 22.3417C24.7333 22.225 24.8167 22.0333 24.7833 21.8333L24.6 20.775C24.5917 20.7333 24.6083 20.6917 24.6333 20.6583L25.3917 19.9166Z" fill="white"/>
<path d="M17.675 16.3166V23.6832C17.3584 23.6832 17.0917 23.9499 17.0917 24.2666V26.7832H16.125C12.8334 26.7832 11.75 25.7999 11.675 22.7332C11.6667 22.5749 11.7334 22.4249 11.8417 22.3166C11.95 22.1999 12.1084 22.1416 12.2584 22.1416C13.425 22.1416 14.3834 21.1832 14.3834 20.0082C14.3834 18.8332 13.425 17.8666 12.2584 17.8666C12.0917 17.8666 11.95 17.8082 11.8417 17.6916C11.7334 17.5832 11.6667 17.4249 11.675 17.2749C11.75 14.1999 12.8334 13.2166 16.125 13.2166H17.0917V15.7332C17.0917 16.0582 17.3584 16.3166 17.675 16.3166Z" fill="white"/>
<path d="M49.344 25.5V14.94H51.664V25.5H49.344ZM46.288 16.876V14.94H54.736V16.876H46.288ZM56.0236 25.5V17.1H58.3276V25.5H56.0236ZM57.1756 15.9C56.7276 15.9 56.381 15.8093 56.1356 15.628C55.901 15.436 55.7836 15.1587 55.7836 14.796C55.7836 14.4227 55.901 14.1453 56.1356 13.964C56.381 13.772 56.7276 13.676 57.1756 13.676C57.6343 13.676 57.981 13.772 58.2156 13.964C58.461 14.1453 58.5836 14.4227 58.5836 14.796C58.5836 15.1587 58.461 15.436 58.2156 15.628C57.981 15.8093 57.6343 15.9 57.1756 15.9ZM64.2241 25.724C63.4988 25.724 62.8641 25.6173 62.3201 25.404C61.7868 25.1907 61.3388 24.892 60.9761 24.508C60.6135 24.124 60.3415 23.6707 60.1601 23.148C59.9788 22.6147 59.8881 22.0333 59.8881 21.404C59.8881 20.7427 59.9788 20.14 60.1601 19.596C60.3521 19.052 60.6241 18.5773 60.9761 18.172C61.3388 17.756 61.7868 17.436 62.3201 17.212C62.8535 16.988 63.4615 16.876 64.1441 16.876C64.8588 16.876 65.4668 16.9933 65.9681 17.228C66.4801 17.4627 66.8908 17.788 67.2001 18.204C67.5095 18.62 67.7068 19.1 67.7921 19.644L65.6801 20.284C65.6481 19.9427 65.5628 19.6493 65.4241 19.404C65.2855 19.1587 65.0935 18.9773 64.8481 18.86C64.6135 18.7427 64.3468 18.684 64.0481 18.684C63.7495 18.684 63.4881 18.7427 63.2641 18.86C63.0401 18.9667 62.8481 19.1373 62.6881 19.372C62.5388 19.596 62.4215 19.8733 62.3361 20.204C62.2615 20.524 62.2241 20.892 62.2241 21.308C62.2241 21.884 62.2988 22.3747 62.4481 22.78C62.5975 23.1747 62.8215 23.4787 63.1201 23.692C63.4295 23.8947 63.8081 23.996 64.2561 23.996C64.6721 23.996 65.0028 23.9107 65.2481 23.74C65.5041 23.5693 65.6908 23.3507 65.8081 23.084C65.9361 22.8173 66.0108 22.5453 66.0321 22.268L68.0481 22.668C68.0161 23.0947 67.9148 23.4947 67.7441 23.868C67.5735 24.2307 67.3281 24.556 67.0081 24.844C66.6988 25.1213 66.3148 25.34 65.8561 25.5C65.3975 25.6493 64.8535 25.724 64.2241 25.724ZM69.3205 25.5V14.092H71.5765V20.412C71.9178 20.188 72.2378 19.948 72.5365 19.692C72.8458 19.4253 73.1232 19.148 73.3685 18.86C73.6245 18.572 73.8432 18.2787 74.0245 17.98C74.2165 17.6813 74.3765 17.388 74.5045 17.1H77.1445C76.9952 17.5053 76.7925 17.916 76.5365 18.332C76.2805 18.7373 75.9712 19.1107 75.6085 19.452C75.2565 19.7933 74.8458 20.092 74.3765 20.348C73.9178 20.5933 73.4058 20.7693 72.8405 20.876V21.116C73.5552 20.9987 74.1418 21.0147 74.6005 21.164C75.0698 21.3027 75.4538 21.5267 75.7525 21.836C76.0512 22.1453 76.2858 22.508 76.4565 22.924C76.6378 23.3293 76.7978 23.74 76.9365 24.156L77.3045 25.5H74.8085L74.6005 24.652C74.4618 24.14 74.3018 23.692 74.1205 23.308C73.9498 22.924 73.7205 22.6253 73.4325 22.412C73.1445 22.1987 72.7445 22.092 72.2325 22.092H71.5765V25.5H69.3205ZM82.3495 25.724C81.6455 25.724 81.0268 25.628 80.4935 25.436C79.9602 25.2333 79.5068 24.9507 79.1335 24.588C78.7602 24.2147 78.4775 23.7667 78.2855 23.244C78.0935 22.7107 77.9975 22.1133 77.9975 21.452C77.9975 20.7907 78.0882 20.1827 78.2695 19.628C78.4615 19.0733 78.7335 18.588 79.0855 18.172C79.4482 17.756 79.8908 17.436 80.4135 17.212C80.9362 16.988 81.5282 16.876 82.1895 16.876C82.8402 16.876 83.4108 16.9827 83.9015 17.196C84.4028 17.4093 84.8188 17.724 85.1495 18.14C85.4802 18.556 85.7202 19.0627 85.8695 19.66C86.0295 20.2573 86.0828 20.9453 86.0295 21.724L79.4855 21.772V20.508L84.6535 20.46L83.9015 21.116C83.9655 20.5507 83.9282 20.092 83.7895 19.74C83.6508 19.3773 83.4375 19.1107 83.1495 18.94C82.8722 18.7587 82.5575 18.668 82.2055 18.668C81.8002 18.668 81.4482 18.78 81.1495 19.004C80.8508 19.2173 80.6162 19.5267 80.4455 19.932C80.2855 20.3373 80.2055 20.828 80.2055 21.404C80.2055 22.3 80.3975 22.9613 80.7815 23.388C81.1762 23.8147 81.6988 24.028 82.3495 24.028C82.6482 24.028 82.8988 23.9907 83.1015 23.916C83.3148 23.8307 83.4855 23.724 83.6135 23.596C83.7522 23.468 83.8588 23.324 83.9335 23.164C84.0082 22.9933 84.0668 22.8227 84.1095 22.652L86.1255 23.052C86.0508 23.4467 85.9228 23.8093 85.7415 24.14C85.5602 24.46 85.3148 24.7373 85.0055 24.972C84.6962 25.2067 84.3228 25.388 83.8855 25.516C83.4588 25.6547 82.9468 25.724 82.3495 25.724ZM90.7846 25.692C89.8353 25.692 89.1366 25.4467 88.6886 24.956C88.2513 24.4547 88.0326 23.6653 88.0326 22.588V18.908H86.8486L86.8806 17.148H87.6326C87.9953 17.1373 88.262 17.0733 88.4326 16.956C88.6033 16.828 88.71 16.6093 88.7526 16.3L88.9286 15.228H90.2406V17.1H92.3526V18.972H90.2406V22.476C90.2406 22.86 90.3313 23.1427 90.5126 23.324C90.7046 23.4947 90.982 23.58 91.3446 23.58C91.5366 23.58 91.7233 23.5587 91.9046 23.516C92.0966 23.4733 92.2673 23.404 92.4166 23.308V25.436C92.086 25.5427 91.782 25.612 91.5046 25.644C91.238 25.676 90.998 25.692 90.7846 25.692ZM95.6106 25.5L93.2426 14.94H95.7546L97.3066 23.5H97.4826L99.3066 14.94H102.203L104.059 23.5H104.219L105.787 14.94H108.171L105.771 25.5H102.555L100.795 16.956H100.651L98.9066 25.5H95.6106ZM111.008 25.724C110.549 25.724 110.138 25.6333 109.776 25.452C109.413 25.2707 109.125 25.004 108.912 24.652C108.698 24.3 108.592 23.8627 108.592 23.34C108.592 22.8813 108.682 22.4973 108.864 22.188C109.045 21.868 109.306 21.612 109.648 21.42C109.989 21.228 110.405 21.068 110.896 20.94C111.386 20.812 111.941 20.7053 112.56 20.62C112.922 20.556 113.216 20.4973 113.44 20.444C113.664 20.3907 113.829 20.3107 113.936 20.204C114.042 20.0973 114.096 19.9427 114.096 19.74C114.096 19.4307 113.984 19.1747 113.76 18.972C113.546 18.7587 113.21 18.652 112.752 18.652C112.464 18.652 112.186 18.7053 111.92 18.812C111.653 18.908 111.429 19.068 111.248 19.292C111.066 19.5053 110.938 19.7827 110.864 20.124L108.832 19.564C108.938 19.0947 109.109 18.6947 109.344 18.364C109.578 18.0333 109.866 17.756 110.208 17.532C110.56 17.308 110.954 17.1427 111.392 17.036C111.84 16.9293 112.314 16.876 112.816 16.876C113.626 16.876 114.293 17.0093 114.816 17.276C115.338 17.5427 115.728 17.9533 115.984 18.508C116.24 19.052 116.368 19.756 116.368 20.62V22.06C116.368 22.4333 116.373 22.812 116.384 23.196C116.394 23.58 116.41 23.9693 116.432 24.364C116.464 24.748 116.496 25.1267 116.528 25.5H114.496C114.453 25.212 114.416 24.892 114.384 24.54C114.352 24.188 114.33 23.8253 114.32 23.452H114.048C113.92 23.868 113.712 24.252 113.424 24.604C113.146 24.9453 112.805 25.2173 112.4 25.42C111.994 25.6227 111.53 25.724 111.008 25.724ZM111.984 24.044C112.186 24.044 112.394 24.012 112.608 23.948C112.821 23.8733 113.024 23.7667 113.216 23.628C113.418 23.4787 113.6 23.2973 113.76 23.084C113.92 22.8707 114.048 22.6253 114.144 22.348L114.112 21.116L114.48 21.18C114.309 21.3187 114.096 21.4307 113.84 21.516C113.594 21.5907 113.333 21.6493 113.056 21.692C112.789 21.7347 112.522 21.7827 112.256 21.836C111.989 21.8893 111.744 21.9587 111.52 22.044C111.306 22.1293 111.136 22.2467 111.008 22.396C110.89 22.5453 110.832 22.748 110.832 23.004C110.832 23.324 110.938 23.58 111.152 23.772C111.365 23.9533 111.642 24.044 111.984 24.044ZM117.809 25.5V23.564L122.113 19.164V18.94H117.889V17.1H125.009V19.004L120.673 23.436V23.644H125.057V25.5H117.809ZM130.381 25.724C129.677 25.724 129.058 25.628 128.525 25.436C127.991 25.2333 127.538 24.9507 127.165 24.588C126.791 24.2147 126.509 23.7667 126.317 23.244C126.125 22.7107 126.029 22.1133 126.029 21.452C126.029 20.7907 126.119 20.1827 126.301 19.628C126.493 19.0733 126.765 18.588 127.117 18.172C127.479 17.756 127.922 17.436 128.445 17.212C128.967 16.988 129.559 16.876 130.221 16.876C130.871 16.876 131.442 16.9827 131.933 17.196C132.434 17.4093 132.85 17.724 133.181 18.14C133.511 18.556 133.751 19.0627 133.901 19.66C134.061 20.2573 134.114 20.9453 134.061 21.724L127.517 21.772V20.508L132.685 20.46L131.933 21.116C131.997 20.5507 131.959 20.092 131.821 19.74C131.682 19.3773 131.469 19.1107 131.181 18.94C130.903 18.7587 130.589 18.668 130.237 18.668C129.831 18.668 129.479 18.78 129.181 19.004C128.882 19.2173 128.647 19.5267 128.477 19.932C128.317 20.3373 128.237 20.828 128.237 21.404C128.237 22.3 128.429 22.9613 128.813 23.388C129.207 23.8147 129.73 24.028 130.381 24.028C130.679 24.028 130.93 23.9907 131.133 23.916C131.346 23.8307 131.517 23.724 131.645 23.596C131.783 23.468 131.89 23.324 131.965 23.164C132.039 22.9933 132.098 22.8227 132.141 22.652L134.157 23.052C134.082 23.4467 133.954 23.8093 133.773 24.14C133.591 24.46 133.346 24.7373 133.037 24.972C132.727 25.2067 132.354 25.388 131.917 25.516C131.49 25.6547 130.978 25.724 130.381 25.724Z" fill="#E45B00"/>
</svg>
