<svg width="380" height="295" viewBox="0 0 380 295" fill="none" xmlns="http://www.w3.org/2000/svg">
<circle cx="9.67383" cy="6" r="1" fill="#454A53"/>
<circle cx="21.6956" cy="6" r="1" fill="#454A53"/>
<circle cx="33.7173" cy="6" r="1" fill="#454A53"/>
<circle cx="45.739" cy="6" r="1" fill="#454A53"/>
<circle cx="57.7607" cy="6" r="1" fill="#454A53"/>
<circle cx="69.7827" cy="6" r="1" fill="#454A53"/>
<circle cx="81.8044" cy="6" r="1" fill="#454A53"/>
<circle cx="93.8262" cy="6" r="1" fill="#454A53"/>
<circle cx="105.848" cy="6" r="1" fill="#454A53"/>
<circle cx="117.87" cy="6" r="1" fill="#454A53"/>
<circle cx="129.891" cy="6" r="1" fill="#454A53"/>
<circle cx="141.913" cy="6" r="1" fill="#454A53"/>
<circle cx="153.935" cy="6" r="1" fill="#454A53"/>
<circle cx="165.957" cy="6" r="1" fill="#454A53"/>
<circle cx="177.978" cy="6" r="1" fill="#454A53"/>
<circle cx="190" cy="6" r="1" fill="#454A53"/>
<circle cx="202.022" cy="6" r="1" fill="#454A53"/>
<circle cx="214.043" cy="6" r="1" fill="#454A53"/>
<circle cx="226.065" cy="6" r="1" fill="#454A53"/>
<circle cx="238.087" cy="6" r="1" fill="#454A53"/>
<circle cx="250.109" cy="6" r="1" fill="#454A53"/>
<circle cx="262.13" cy="6" r="1" fill="#454A53"/>
<circle cx="274.152" cy="6" r="1" fill="#454A53"/>
<circle cx="286.174" cy="6" r="1" fill="#454A53"/>
<circle cx="298.196" cy="6" r="1" fill="#454A53"/>
<circle cx="310.217" cy="6" r="1" fill="#454A53"/>
<circle cx="322.239" cy="6" r="1" fill="#454A53"/>
<circle cx="334.261" cy="6" r="1" fill="#454A53"/>
<circle cx="346.282" cy="6" r="1" fill="#454A53"/>
<circle cx="358.304" cy="6" r="1" fill="#454A53"/>
<circle cx="370.326" cy="6" r="1" fill="#454A53"/>
<circle cx="9.67383" cy="18" r="1" fill="#454A53"/>
<circle cx="21.6956" cy="18" r="1" fill="#454A53"/>
<circle cx="33.7173" cy="18" r="1" fill="#454A53"/>
<circle cx="45.739" cy="18" r="1" fill="#454A53"/>
<circle cx="57.7607" cy="18" r="1" fill="#454A53"/>
<circle cx="69.7827" cy="18" r="1" fill="#454A53"/>
<circle cx="81.8044" cy="18" r="1" fill="#454A53"/>
<circle cx="93.8262" cy="18" r="1" fill="#454A53"/>
<circle cx="105.848" cy="18" r="1" fill="#454A53"/>
<circle cx="117.87" cy="18" r="1" fill="#454A53"/>
<circle cx="129.891" cy="18" r="1" fill="#454A53"/>
<circle cx="141.913" cy="18" r="1" fill="#454A53"/>
<circle cx="153.935" cy="18" r="1" fill="#454A53"/>
<circle cx="165.957" cy="18" r="1" fill="#454A53"/>
<circle cx="177.978" cy="18" r="1" fill="#454A53"/>
<circle cx="190" cy="18" r="1" fill="#454A53"/>
<circle cx="202.022" cy="18" r="1" fill="#454A53"/>
<circle cx="214.043" cy="18" r="1" fill="#454A53"/>
<circle cx="226.065" cy="18" r="1" fill="#454A53"/>
<circle cx="238.087" cy="18" r="1" fill="#454A53"/>
<circle cx="250.109" cy="18" r="1" fill="#454A53"/>
<circle cx="262.13" cy="18" r="1" fill="#454A53"/>
<circle cx="274.152" cy="18" r="1" fill="#454A53"/>
<circle cx="286.174" cy="18" r="1" fill="#454A53"/>
<circle cx="298.196" cy="18" r="1" fill="#454A53"/>
<circle cx="310.217" cy="18" r="1" fill="#454A53"/>
<circle cx="322.239" cy="18" r="1" fill="#454A53"/>
<circle cx="334.261" cy="18" r="1" fill="#454A53"/>
<circle cx="346.282" cy="18" r="1" fill="#454A53"/>
<circle cx="358.304" cy="18" r="1" fill="#454A53"/>
<circle cx="370.326" cy="18" r="1" fill="#454A53"/>
<circle cx="9.67383" cy="30" r="1" fill="#454A53"/>
<circle cx="21.6956" cy="30" r="1" fill="#454A53"/>
<circle cx="33.7173" cy="30" r="1" fill="#454A53"/>
<circle cx="45.739" cy="30" r="1" fill="#454A53"/>
<circle cx="57.7607" cy="30" r="1" fill="#454A53"/>
<circle cx="69.7827" cy="30" r="1" fill="#454A53"/>
<circle cx="81.8044" cy="30" r="1" fill="#454A53"/>
<circle cx="93.8262" cy="30" r="1" fill="#454A53"/>
<circle cx="105.848" cy="30" r="1" fill="#454A53"/>
<circle cx="117.87" cy="30" r="1" fill="#454A53"/>
<circle cx="129.891" cy="30" r="1" fill="#454A53"/>
<circle cx="141.913" cy="30" r="1" fill="#454A53"/>
<circle cx="153.935" cy="30" r="1" fill="#454A53"/>
<circle cx="165.957" cy="30" r="1" fill="#454A53"/>
<circle cx="177.978" cy="30" r="1" fill="#454A53"/>
<circle cx="190" cy="30" r="1" fill="#454A53"/>
<circle cx="202.022" cy="30" r="1" fill="#454A53"/>
<circle cx="214.043" cy="30" r="1" fill="#454A53"/>
<circle cx="226.065" cy="30" r="1" fill="#454A53"/>
<circle cx="238.087" cy="30" r="1" fill="#454A53"/>
<circle cx="250.109" cy="30" r="1" fill="#454A53"/>
<circle cx="262.13" cy="30" r="1" fill="#454A53"/>
<circle cx="274.152" cy="30" r="1" fill="#454A53"/>
<circle cx="286.174" cy="30" r="1" fill="#454A53"/>
<circle cx="298.196" cy="30" r="1" fill="#454A53"/>
<circle cx="310.217" cy="30" r="1" fill="#454A53"/>
<circle cx="322.239" cy="30" r="1" fill="#454A53"/>
<circle cx="334.261" cy="30" r="1" fill="#454A53"/>
<circle cx="346.282" cy="30" r="1" fill="#454A53"/>
<circle cx="358.304" cy="30" r="1" fill="#454A53"/>
<circle cx="370.326" cy="30" r="1" fill="#454A53"/>
<circle cx="9.67383" cy="42" r="1" fill="#454A53"/>
<circle cx="21.6956" cy="42" r="1" fill="#454A53"/>
<circle cx="33.7173" cy="42" r="1" fill="#454A53"/>
<circle cx="45.739" cy="42" r="1" fill="#454A53"/>
<circle cx="57.7607" cy="42" r="1" fill="#454A53"/>
<circle cx="69.7827" cy="42" r="1" fill="#454A53"/>
<circle cx="81.8044" cy="42" r="1" fill="#454A53"/>
<circle cx="93.8262" cy="42" r="1" fill="#454A53"/>
<circle cx="105.848" cy="42" r="1" fill="#454A53"/>
<circle cx="117.87" cy="42" r="1" fill="#454A53"/>
<circle cx="129.891" cy="42" r="1" fill="#454A53"/>
<circle cx="141.913" cy="42" r="1" fill="#454A53"/>
<circle cx="153.935" cy="42" r="1" fill="#454A53"/>
<circle cx="165.957" cy="42" r="1" fill="#454A53"/>
<circle cx="177.978" cy="42" r="1" fill="#454A53"/>
<circle cx="190" cy="42" r="1" fill="#454A53"/>
<circle cx="202.022" cy="42" r="1" fill="#454A53"/>
<circle cx="214.043" cy="42" r="1" fill="#454A53"/>
<circle cx="226.065" cy="42" r="1" fill="#454A53"/>
<circle cx="238.087" cy="42" r="1" fill="#454A53"/>
<circle cx="250.109" cy="42" r="1" fill="#454A53"/>
<circle cx="262.13" cy="42" r="1" fill="#454A53"/>
<circle cx="274.152" cy="42" r="1" fill="#454A53"/>
<circle cx="286.174" cy="42" r="1" fill="#454A53"/>
<circle cx="298.196" cy="42" r="1" fill="#454A53"/>
<circle cx="310.217" cy="42" r="1" fill="#454A53"/>
<circle cx="322.239" cy="42" r="1" fill="#454A53"/>
<circle cx="334.261" cy="42" r="1" fill="#454A53"/>
<circle cx="346.282" cy="42" r="1" fill="#454A53"/>
<circle cx="358.304" cy="42" r="1" fill="#454A53"/>
<circle cx="370.326" cy="42" r="1" fill="#454A53"/>
<circle cx="9.67383" cy="54" r="1" fill="#454A53"/>
<circle cx="21.6956" cy="54" r="1" fill="#454A53"/>
<circle cx="33.7173" cy="54" r="1" fill="#454A53"/>
<circle cx="45.739" cy="54" r="1" fill="#454A53"/>
<circle cx="57.7607" cy="54" r="1" fill="#454A53"/>
<circle cx="69.7827" cy="54" r="1" fill="#454A53"/>
<circle cx="81.8044" cy="54" r="1" fill="#454A53"/>
<circle cx="93.8262" cy="54" r="1" fill="#454A53"/>
<circle cx="105.848" cy="54" r="1" fill="#454A53"/>
<circle cx="117.87" cy="54" r="1" fill="#454A53"/>
<circle cx="129.891" cy="54" r="1" fill="#454A53"/>
<circle cx="141.913" cy="54" r="1" fill="#454A53"/>
<circle cx="153.935" cy="54" r="1" fill="#454A53"/>
<circle cx="165.957" cy="54" r="1" fill="#454A53"/>
<circle cx="177.978" cy="54" r="1" fill="#454A53"/>
<circle cx="190" cy="54" r="1" fill="#454A53"/>
<circle cx="202.022" cy="54" r="1" fill="#454A53"/>
<circle cx="214.043" cy="54" r="1" fill="#454A53"/>
<circle cx="226.065" cy="54" r="1" fill="#454A53"/>
<circle cx="238.087" cy="54" r="1" fill="#454A53"/>
<circle cx="250.109" cy="54" r="1" fill="#454A53"/>
<circle cx="262.13" cy="54" r="1" fill="#454A53"/>
<circle cx="274.152" cy="54" r="1" fill="#454A53"/>
<circle cx="286.174" cy="54" r="1" fill="#454A53"/>
<circle cx="298.196" cy="54" r="1" fill="#454A53"/>
<circle cx="310.217" cy="54" r="1" fill="#454A53"/>
<circle cx="322.239" cy="54" r="1" fill="#454A53"/>
<circle cx="334.261" cy="54" r="1" fill="#454A53"/>
<circle cx="346.282" cy="54" r="1" fill="#454A53"/>
<circle cx="358.304" cy="54" r="1" fill="#454A53"/>
<circle cx="370.326" cy="54" r="1" fill="#454A53"/>
<circle cx="9.67383" cy="66" r="1" fill="#454A53"/>
<circle cx="21.6956" cy="66" r="1" fill="#454A53"/>
<circle cx="33.7173" cy="66" r="1" fill="#454A53"/>
<circle cx="45.739" cy="66" r="1" fill="#454A53"/>
<circle cx="57.7607" cy="66" r="1" fill="#454A53"/>
<circle cx="69.7827" cy="66" r="1" fill="#454A53"/>
<circle cx="81.8044" cy="66" r="1" fill="#454A53"/>
<circle cx="93.8262" cy="66" r="1" fill="#454A53"/>
<circle cx="105.848" cy="66" r="1" fill="#454A53"/>
<circle cx="117.87" cy="66" r="1" fill="#454A53"/>
<circle cx="129.891" cy="66" r="1" fill="#454A53"/>
<circle cx="141.913" cy="66" r="1" fill="#454A53"/>
<circle cx="153.935" cy="66" r="1" fill="#454A53"/>
<circle cx="165.957" cy="66" r="1" fill="#454A53"/>
<circle cx="177.978" cy="66" r="1" fill="#454A53"/>
<circle cx="190" cy="66" r="1" fill="#454A53"/>
<circle cx="202.022" cy="66" r="1" fill="#454A53"/>
<circle cx="214.043" cy="66" r="1" fill="#454A53"/>
<circle cx="226.065" cy="66" r="1" fill="#454A53"/>
<circle cx="238.087" cy="66" r="1" fill="#454A53"/>
<circle cx="250.109" cy="66" r="1" fill="#454A53"/>
<circle cx="262.13" cy="66" r="1" fill="#454A53"/>
<circle cx="274.152" cy="66" r="1" fill="#454A53"/>
<circle cx="286.174" cy="66" r="1" fill="#454A53"/>
<circle cx="298.196" cy="66" r="1" fill="#454A53"/>
<circle cx="310.217" cy="66" r="1" fill="#454A53"/>
<circle cx="322.239" cy="66" r="1" fill="#454A53"/>
<circle cx="334.261" cy="66" r="1" fill="#454A53"/>
<circle cx="346.282" cy="66" r="1" fill="#454A53"/>
<circle cx="358.304" cy="66" r="1" fill="#454A53"/>
<circle cx="370.326" cy="66" r="1" fill="#454A53"/>
<circle cx="9.67383" cy="78" r="1" fill="#454A53"/>
<circle cx="21.6956" cy="78" r="1" fill="#454A53"/>
<circle cx="33.7173" cy="78" r="1" fill="#454A53"/>
<circle cx="45.739" cy="78" r="1" fill="#454A53"/>
<circle cx="57.7607" cy="78" r="1" fill="#454A53"/>
<circle cx="69.7827" cy="78" r="1" fill="#454A53"/>
<circle cx="81.8044" cy="78" r="1" fill="#454A53"/>
<circle cx="93.8262" cy="78" r="1" fill="#454A53"/>
<circle cx="105.848" cy="78" r="1" fill="#454A53"/>
<circle cx="117.87" cy="78" r="1" fill="#454A53"/>
<circle cx="129.891" cy="78" r="1" fill="#454A53"/>
<circle cx="141.913" cy="78" r="1" fill="#454A53"/>
<circle cx="153.935" cy="78" r="1" fill="#454A53"/>
<circle cx="165.957" cy="78" r="1" fill="#454A53"/>
<circle cx="177.978" cy="78" r="1" fill="#454A53"/>
<circle cx="190" cy="78" r="1" fill="#454A53"/>
<circle cx="202.022" cy="78" r="1" fill="#454A53"/>
<circle cx="214.043" cy="78" r="1" fill="#454A53"/>
<circle cx="226.065" cy="78" r="1" fill="#454A53"/>
<circle cx="238.087" cy="78" r="1" fill="#454A53"/>
<circle cx="250.109" cy="78" r="1" fill="#454A53"/>
<circle cx="262.13" cy="78" r="1" fill="#454A53"/>
<circle cx="274.152" cy="78" r="1" fill="#454A53"/>
<circle cx="286.174" cy="78" r="1" fill="#454A53"/>
<circle cx="298.196" cy="78" r="1" fill="#454A53"/>
<circle cx="310.217" cy="78" r="1" fill="#454A53"/>
<circle cx="322.239" cy="78" r="1" fill="#454A53"/>
<circle cx="334.261" cy="78" r="1" fill="#454A53"/>
<circle cx="346.282" cy="78" r="1" fill="#454A53"/>
<circle cx="358.304" cy="78" r="1" fill="#454A53"/>
<circle cx="370.326" cy="78" r="1" fill="#454A53"/>
<circle cx="9.67383" cy="90" r="1" fill="#454A53"/>
<circle cx="21.6956" cy="90" r="1" fill="#454A53"/>
<circle cx="33.7173" cy="90" r="1" fill="#454A53"/>
<circle cx="45.739" cy="90" r="1" fill="#454A53"/>
<circle cx="57.7607" cy="90" r="1" fill="#454A53"/>
<circle cx="69.7827" cy="90" r="1" fill="#454A53"/>
<circle cx="81.8044" cy="90" r="1" fill="#454A53"/>
<circle cx="93.8262" cy="90" r="1" fill="#454A53"/>
<circle cx="105.848" cy="90" r="1" fill="#454A53"/>
<circle cx="117.87" cy="90" r="1" fill="#454A53"/>
<circle cx="129.891" cy="90" r="1" fill="#454A53"/>
<circle cx="141.913" cy="90" r="1" fill="#454A53"/>
<circle cx="153.935" cy="90" r="1" fill="#454A53"/>
<circle cx="165.957" cy="90" r="1" fill="#454A53"/>
<circle cx="177.978" cy="90" r="1" fill="#454A53"/>
<circle cx="190" cy="90" r="1" fill="#454A53"/>
<circle cx="202.022" cy="90" r="1" fill="#454A53"/>
<circle cx="214.043" cy="90" r="1" fill="#454A53"/>
<circle cx="226.065" cy="90" r="1" fill="#454A53"/>
<circle cx="238.087" cy="90" r="1" fill="#454A53"/>
<circle cx="250.109" cy="90" r="1" fill="#454A53"/>
<circle cx="262.13" cy="90" r="1" fill="#454A53"/>
<circle cx="274.152" cy="90" r="1" fill="#454A53"/>
<circle cx="286.174" cy="90" r="1" fill="#454A53"/>
<circle cx="298.196" cy="90" r="1" fill="#454A53"/>
<circle cx="310.217" cy="90" r="1" fill="#454A53"/>
<circle cx="322.239" cy="90" r="1" fill="#454A53"/>
<circle cx="334.261" cy="90" r="1" fill="#454A53"/>
<circle cx="346.282" cy="90" r="1" fill="#454A53"/>
<circle cx="358.304" cy="90" r="1" fill="#454A53"/>
<circle cx="370.326" cy="90" r="1" fill="#454A53"/>
<circle cx="9.67383" cy="102" r="1" fill="#454A53"/>
<circle cx="21.6956" cy="102" r="1" fill="#454A53"/>
<circle cx="33.7173" cy="102" r="1" fill="#454A53"/>
<circle cx="45.739" cy="102" r="1" fill="#454A53"/>
<circle cx="57.7607" cy="102" r="1" fill="#454A53"/>
<circle cx="69.7827" cy="102" r="1" fill="#454A53"/>
<circle cx="81.8044" cy="102" r="1" fill="#454A53"/>
<circle cx="93.8262" cy="102" r="1" fill="#454A53"/>
<circle cx="105.848" cy="102" r="1" fill="#454A53"/>
<circle cx="117.87" cy="102" r="1" fill="#454A53"/>
<circle cx="129.891" cy="102" r="1" fill="#454A53"/>
<circle cx="141.913" cy="102" r="1" fill="#454A53"/>
<circle cx="153.935" cy="102" r="1" fill="#454A53"/>
<circle cx="165.957" cy="102" r="1" fill="#454A53"/>
<circle cx="177.978" cy="102" r="1" fill="#454A53"/>
<circle cx="190" cy="102" r="1" fill="#454A53"/>
<circle cx="202.022" cy="102" r="1" fill="#454A53"/>
<circle cx="214.043" cy="102" r="1" fill="#454A53"/>
<circle cx="226.065" cy="102" r="1" fill="#454A53"/>
<circle cx="238.087" cy="102" r="1" fill="#454A53"/>
<circle cx="250.109" cy="102" r="1" fill="#454A53"/>
<circle cx="262.13" cy="102" r="1" fill="#454A53"/>
<circle cx="274.152" cy="102" r="1" fill="#454A53"/>
<circle cx="286.174" cy="102" r="1" fill="#454A53"/>
<circle cx="298.196" cy="102" r="1" fill="#454A53"/>
<circle cx="310.217" cy="102" r="1" fill="#454A53"/>
<circle cx="322.239" cy="102" r="1" fill="#454A53"/>
<circle cx="334.261" cy="102" r="1" fill="#454A53"/>
<circle cx="346.282" cy="102" r="1" fill="#454A53"/>
<circle cx="358.304" cy="102" r="1" fill="#454A53"/>
<circle cx="370.326" cy="102" r="1" fill="#454A53"/>
<circle cx="9.67383" cy="114" r="1" fill="#454A53"/>
<circle cx="21.6956" cy="114" r="1" fill="#454A53"/>
<circle cx="33.7173" cy="114" r="1" fill="#454A53"/>
<circle cx="45.739" cy="114" r="1" fill="#454A53"/>
<circle cx="57.7607" cy="114" r="1" fill="#454A53"/>
<circle cx="69.7827" cy="114" r="1" fill="#454A53"/>
<circle cx="81.8044" cy="114" r="1" fill="#454A53"/>
<circle cx="93.8262" cy="114" r="1" fill="#454A53"/>
<circle cx="105.848" cy="114" r="1" fill="#454A53"/>
<circle cx="117.87" cy="114" r="1" fill="#454A53"/>
<circle cx="129.891" cy="114" r="1" fill="#454A53"/>
<circle cx="141.913" cy="114" r="1" fill="#454A53"/>
<circle cx="153.935" cy="114" r="1" fill="#454A53"/>
<circle cx="165.957" cy="114" r="1" fill="#454A53"/>
<circle cx="177.978" cy="114" r="1" fill="#454A53"/>
<circle cx="190" cy="114" r="1" fill="#454A53"/>
<circle cx="202.022" cy="114" r="1" fill="#454A53"/>
<circle cx="214.043" cy="114" r="1" fill="#454A53"/>
<circle cx="226.065" cy="114" r="1" fill="#454A53"/>
<circle cx="238.087" cy="114" r="1" fill="#454A53"/>
<circle cx="250.109" cy="114" r="1" fill="#454A53"/>
<circle cx="262.13" cy="114" r="1" fill="#454A53"/>
<circle cx="274.152" cy="114" r="1" fill="#454A53"/>
<circle cx="286.174" cy="114" r="1" fill="#454A53"/>
<circle cx="298.196" cy="114" r="1" fill="#454A53"/>
<circle cx="310.217" cy="114" r="1" fill="#454A53"/>
<circle cx="322.239" cy="114" r="1" fill="#454A53"/>
<circle cx="334.261" cy="114" r="1" fill="#454A53"/>
<circle cx="346.282" cy="114" r="1" fill="#454A53"/>
<circle cx="358.304" cy="114" r="1" fill="#454A53"/>
<circle cx="370.326" cy="114" r="1" fill="#454A53"/>
<circle cx="9.67383" cy="126" r="1" fill="#454A53"/>
<circle cx="21.6956" cy="126" r="1" fill="#454A53"/>
<circle cx="33.7173" cy="126" r="1" fill="#454A53"/>
<circle cx="45.739" cy="126" r="1" fill="#454A53"/>
<circle cx="57.7607" cy="126" r="1" fill="#454A53"/>
<circle cx="69.7827" cy="126" r="1" fill="#454A53"/>
<circle cx="81.8044" cy="126" r="1" fill="#454A53"/>
<circle cx="93.8262" cy="126" r="1" fill="#454A53"/>
<circle cx="105.848" cy="126" r="1" fill="#454A53"/>
<circle cx="117.87" cy="126" r="1" fill="#454A53"/>
<circle cx="129.891" cy="126" r="1" fill="#454A53"/>
<circle cx="141.913" cy="126" r="1" fill="#454A53"/>
<circle cx="153.935" cy="126" r="1" fill="#454A53"/>
<circle cx="165.957" cy="126" r="1" fill="#454A53"/>
<circle cx="177.978" cy="126" r="1" fill="#454A53"/>
<circle cx="190" cy="126" r="1" fill="#454A53"/>
<circle cx="202.022" cy="126" r="1" fill="#454A53"/>
<circle cx="214.043" cy="126" r="1" fill="#454A53"/>
<circle cx="226.065" cy="126" r="1" fill="#454A53"/>
<circle cx="238.087" cy="126" r="1" fill="#454A53"/>
<circle cx="250.109" cy="126" r="1" fill="#454A53"/>
<circle cx="262.13" cy="126" r="1" fill="#454A53"/>
<circle cx="274.152" cy="126" r="1" fill="#454A53"/>
<circle cx="286.174" cy="126" r="1" fill="#454A53"/>
<circle cx="298.196" cy="126" r="1" fill="#454A53"/>
<circle cx="310.217" cy="126" r="1" fill="#454A53"/>
<circle cx="322.239" cy="126" r="1" fill="#454A53"/>
<circle cx="334.261" cy="126" r="1" fill="#454A53"/>
<circle cx="346.282" cy="126" r="1" fill="#454A53"/>
<circle cx="358.304" cy="126" r="1" fill="#454A53"/>
<circle cx="370.326" cy="126" r="1" fill="#454A53"/>
<circle cx="9.67383" cy="138" r="1" fill="#454A53"/>
<circle cx="21.6956" cy="138" r="1" fill="#454A53"/>
<circle cx="33.7173" cy="138" r="1" fill="#454A53"/>
<circle cx="45.739" cy="138" r="1" fill="#454A53"/>
<circle cx="57.7607" cy="138" r="1" fill="#454A53"/>
<circle cx="69.7827" cy="138" r="1" fill="#454A53"/>
<circle cx="81.8044" cy="138" r="1" fill="#454A53"/>
<circle cx="93.8262" cy="138" r="1" fill="#454A53"/>
<circle cx="105.848" cy="138" r="1" fill="#454A53"/>
<circle cx="117.87" cy="138" r="1" fill="#454A53"/>
<circle cx="129.891" cy="138" r="1" fill="#454A53"/>
<circle cx="141.913" cy="138" r="1" fill="#454A53"/>
<circle cx="153.935" cy="138" r="1" fill="#454A53"/>
<circle cx="165.957" cy="138" r="1" fill="#454A53"/>
<circle cx="177.978" cy="138" r="1" fill="#454A53"/>
<circle cx="190" cy="138" r="1" fill="#454A53"/>
<circle cx="202.022" cy="138" r="1" fill="#454A53"/>
<circle cx="214.043" cy="138" r="1" fill="#454A53"/>
<circle cx="226.065" cy="138" r="1" fill="#454A53"/>
<circle cx="238.087" cy="138" r="1" fill="#454A53"/>
<circle cx="250.109" cy="138" r="1" fill="#454A53"/>
<circle cx="262.13" cy="138" r="1" fill="#454A53"/>
<circle cx="274.152" cy="138" r="1" fill="#454A53"/>
<circle cx="286.174" cy="138" r="1" fill="#454A53"/>
<circle cx="298.196" cy="138" r="1" fill="#454A53"/>
<circle cx="310.217" cy="138" r="1" fill="#454A53"/>
<circle cx="322.239" cy="138" r="1" fill="#454A53"/>
<circle cx="334.261" cy="138" r="1" fill="#454A53"/>
<circle cx="346.282" cy="138" r="1" fill="#454A53"/>
<circle cx="358.304" cy="138" r="1" fill="#454A53"/>
<circle cx="370.326" cy="138" r="1" fill="#454A53"/>
<circle cx="9.67383" cy="150" r="1" fill="#454A53"/>
<circle cx="21.6956" cy="150" r="1" fill="#454A53"/>
<circle cx="33.7173" cy="150" r="1" fill="#454A53"/>
<circle cx="45.739" cy="150" r="1" fill="#454A53"/>
<circle cx="57.7607" cy="150" r="1" fill="#454A53"/>
<circle cx="69.7827" cy="150" r="1" fill="#454A53"/>
<circle cx="81.8044" cy="150" r="1" fill="#454A53"/>
<circle cx="93.8262" cy="150" r="1" fill="#454A53"/>
<circle cx="105.848" cy="150" r="1" fill="#454A53"/>
<circle cx="117.87" cy="150" r="1" fill="#454A53"/>
<circle cx="129.891" cy="150" r="1" fill="#454A53"/>
<circle cx="141.913" cy="150" r="1" fill="#454A53"/>
<circle cx="153.935" cy="150" r="1" fill="#454A53"/>
<circle cx="165.957" cy="150" r="1" fill="#454A53"/>
<circle cx="177.978" cy="150" r="1" fill="#454A53"/>
<circle cx="190" cy="150" r="1" fill="#454A53"/>
<circle cx="202.022" cy="150" r="1" fill="#454A53"/>
<circle cx="214.043" cy="150" r="1" fill="#454A53"/>
<circle cx="226.065" cy="150" r="1" fill="#454A53"/>
<circle cx="238.087" cy="150" r="1" fill="#454A53"/>
<circle cx="250.109" cy="150" r="1" fill="#454A53"/>
<circle cx="262.13" cy="150" r="1" fill="#454A53"/>
<circle cx="274.152" cy="150" r="1" fill="#454A53"/>
<circle cx="286.174" cy="150" r="1" fill="#454A53"/>
<circle cx="298.196" cy="150" r="1" fill="#454A53"/>
<circle cx="310.217" cy="150" r="1" fill="#454A53"/>
<circle cx="322.239" cy="150" r="1" fill="#454A53"/>
<circle cx="334.261" cy="150" r="1" fill="#454A53"/>
<circle cx="346.282" cy="150" r="1" fill="#454A53"/>
<circle cx="358.304" cy="150" r="1" fill="#454A53"/>
<circle cx="370.326" cy="150" r="1" fill="#454A53"/>
<circle cx="9.67383" cy="162" r="1" fill="#454A53"/>
<circle cx="21.6956" cy="162" r="1" fill="#454A53"/>
<circle cx="33.7173" cy="162" r="1" fill="#454A53"/>
<circle cx="45.739" cy="162" r="1" fill="#454A53"/>
<circle cx="57.7607" cy="162" r="1" fill="#454A53"/>
<circle cx="69.7827" cy="162" r="1" fill="#454A53"/>
<circle cx="81.8044" cy="162" r="1" fill="#454A53"/>
<circle cx="93.8262" cy="162" r="1" fill="#454A53"/>
<circle cx="105.848" cy="162" r="1" fill="#454A53"/>
<circle cx="117.87" cy="162" r="1" fill="#454A53"/>
<circle cx="129.891" cy="162" r="1" fill="#454A53"/>
<circle cx="141.913" cy="162" r="1" fill="#454A53"/>
<circle cx="153.935" cy="162" r="1" fill="#454A53"/>
<circle cx="165.957" cy="162" r="1" fill="#454A53"/>
<circle cx="177.978" cy="162" r="1" fill="#454A53"/>
<circle cx="190" cy="162" r="1" fill="#454A53"/>
<circle cx="202.022" cy="162" r="1" fill="#454A53"/>
<circle cx="214.043" cy="162" r="1" fill="#454A53"/>
<circle cx="226.065" cy="162" r="1" fill="#454A53"/>
<circle cx="238.087" cy="162" r="1" fill="#454A53"/>
<circle cx="250.109" cy="162" r="1" fill="#454A53"/>
<circle cx="262.13" cy="162" r="1" fill="#454A53"/>
<circle cx="274.152" cy="162" r="1" fill="#454A53"/>
<circle cx="286.174" cy="162" r="1" fill="#454A53"/>
<circle cx="298.196" cy="162" r="1" fill="#454A53"/>
<circle cx="310.217" cy="162" r="1" fill="#454A53"/>
<circle cx="322.239" cy="162" r="1" fill="#454A53"/>
<circle cx="334.261" cy="162" r="1" fill="#454A53"/>
<circle cx="346.282" cy="162" r="1" fill="#454A53"/>
<circle cx="358.304" cy="162" r="1" fill="#454A53"/>
<circle cx="370.326" cy="162" r="1" fill="#454A53"/>
<circle cx="9.67383" cy="174" r="1" fill="#454A53"/>
<circle cx="21.6956" cy="174" r="1" fill="#454A53"/>
<circle cx="33.7173" cy="174" r="1" fill="#454A53"/>
<circle cx="45.739" cy="174" r="1" fill="#454A53"/>
<circle cx="57.7607" cy="174" r="1" fill="#454A53"/>
<circle cx="69.7827" cy="174" r="1" fill="#454A53"/>
<circle cx="81.8044" cy="174" r="1" fill="#454A53"/>
<circle cx="93.8262" cy="174" r="1" fill="#454A53"/>
<circle cx="105.848" cy="174" r="1" fill="#454A53"/>
<circle cx="117.87" cy="174" r="1" fill="#454A53"/>
<circle cx="129.891" cy="174" r="1" fill="#454A53"/>
<circle cx="141.913" cy="174" r="1" fill="#454A53"/>
<circle cx="153.935" cy="174" r="1" fill="#454A53"/>
<circle cx="165.957" cy="174" r="1" fill="#454A53"/>
<circle cx="177.978" cy="174" r="1" fill="#454A53"/>
<circle cx="190" cy="174" r="1" fill="#454A53"/>
<circle cx="202.022" cy="174" r="1" fill="#454A53"/>
<circle cx="214.043" cy="174" r="1" fill="#454A53"/>
<circle cx="226.065" cy="174" r="1" fill="#454A53"/>
<circle cx="238.087" cy="174" r="1" fill="#454A53"/>
<circle cx="250.109" cy="174" r="1" fill="#454A53"/>
<circle cx="262.13" cy="174" r="1" fill="#454A53"/>
<circle cx="274.152" cy="174" r="1" fill="#454A53"/>
<circle cx="286.174" cy="174" r="1" fill="#454A53"/>
<circle cx="298.196" cy="174" r="1" fill="#454A53"/>
<circle cx="310.217" cy="174" r="1" fill="#454A53"/>
<circle cx="322.239" cy="174" r="1" fill="#454A53"/>
<circle cx="334.261" cy="174" r="1" fill="#454A53"/>
<circle cx="346.282" cy="174" r="1" fill="#454A53"/>
<circle cx="358.304" cy="174" r="1" fill="#454A53"/>
<circle cx="370.326" cy="174" r="1" fill="#454A53"/>
<circle cx="9.67383" cy="186" r="1" fill="#454A53"/>
<circle cx="21.6956" cy="186" r="1" fill="#454A53"/>
<circle cx="33.7173" cy="186" r="1" fill="#454A53"/>
<circle cx="45.739" cy="186" r="1" fill="#454A53"/>
<circle cx="57.7607" cy="186" r="1" fill="#454A53"/>
<circle cx="69.7827" cy="186" r="1" fill="#454A53"/>
<circle cx="81.8044" cy="186" r="1" fill="#454A53"/>
<circle cx="93.8262" cy="186" r="1" fill="#454A53"/>
<circle cx="105.848" cy="186" r="1" fill="#454A53"/>
<circle cx="117.87" cy="186" r="1" fill="#454A53"/>
<circle cx="129.891" cy="186" r="1" fill="#454A53"/>
<circle cx="141.913" cy="186" r="1" fill="#454A53"/>
<circle cx="153.935" cy="186" r="1" fill="#454A53"/>
<circle cx="165.957" cy="186" r="1" fill="#454A53"/>
<circle cx="177.978" cy="186" r="1" fill="#454A53"/>
<circle cx="190" cy="186" r="1" fill="#454A53"/>
<circle cx="202.022" cy="186" r="1" fill="#454A53"/>
<circle cx="214.043" cy="186" r="1" fill="#454A53"/>
<circle cx="226.065" cy="186" r="1" fill="#454A53"/>
<circle cx="238.087" cy="186" r="1" fill="#454A53"/>
<circle cx="250.109" cy="186" r="1" fill="#454A53"/>
<circle cx="262.13" cy="186" r="1" fill="#454A53"/>
<circle cx="274.152" cy="186" r="1" fill="#454A53"/>
<circle cx="286.174" cy="186" r="1" fill="#454A53"/>
<circle cx="298.196" cy="186" r="1" fill="#454A53"/>
<circle cx="310.217" cy="186" r="1" fill="#454A53"/>
<circle cx="322.239" cy="186" r="1" fill="#454A53"/>
<circle cx="334.261" cy="186" r="1" fill="#454A53"/>
<circle cx="346.282" cy="186" r="1" fill="#454A53"/>
<circle cx="358.304" cy="186" r="1" fill="#454A53"/>
<circle cx="370.326" cy="186" r="1" fill="#454A53"/>
<circle cx="9.67383" cy="198" r="1" fill="#454A53"/>
<circle cx="21.6956" cy="198" r="1" fill="#454A53"/>
<circle cx="33.7173" cy="198" r="1" fill="#454A53"/>
<circle cx="45.739" cy="198" r="1" fill="#454A53"/>
<circle cx="57.7607" cy="198" r="1" fill="#454A53"/>
<circle cx="69.7827" cy="198" r="1" fill="#454A53"/>
<circle cx="81.8044" cy="198" r="1" fill="#454A53"/>
<circle cx="93.8262" cy="198" r="1" fill="#454A53"/>
<circle cx="105.848" cy="198" r="1" fill="#454A53"/>
<circle cx="117.87" cy="198" r="1" fill="#454A53"/>
<circle cx="129.891" cy="198" r="1" fill="#454A53"/>
<circle cx="141.913" cy="198" r="1" fill="#454A53"/>
<circle cx="153.935" cy="198" r="1" fill="#454A53"/>
<circle cx="165.957" cy="198" r="1" fill="#454A53"/>
<circle cx="177.978" cy="198" r="1" fill="#454A53"/>
<circle cx="190" cy="198" r="1" fill="#454A53"/>
<circle cx="202.022" cy="198" r="1" fill="#454A53"/>
<circle cx="214.043" cy="198" r="1" fill="#454A53"/>
<circle cx="226.065" cy="198" r="1" fill="#454A53"/>
<circle cx="238.087" cy="198" r="1" fill="#454A53"/>
<circle cx="250.109" cy="198" r="1" fill="#454A53"/>
<circle cx="262.13" cy="198" r="1" fill="#454A53"/>
<circle cx="274.152" cy="198" r="1" fill="#454A53"/>
<circle cx="286.174" cy="198" r="1" fill="#454A53"/>
<circle cx="298.196" cy="198" r="1" fill="#454A53"/>
<circle cx="310.217" cy="198" r="1" fill="#454A53"/>
<circle cx="322.239" cy="198" r="1" fill="#454A53"/>
<circle cx="334.261" cy="198" r="1" fill="#454A53"/>
<circle cx="346.282" cy="198" r="1" fill="#454A53"/>
<circle cx="358.304" cy="198" r="1" fill="#454A53"/>
<circle cx="370.326" cy="198" r="1" fill="#454A53"/>
<circle cx="9.67383" cy="210" r="1" fill="#454A53"/>
<circle cx="21.6956" cy="210" r="1" fill="#454A53"/>
<circle cx="33.7173" cy="210" r="1" fill="#454A53"/>
<circle cx="45.739" cy="210" r="1" fill="#454A53"/>
<circle cx="57.7607" cy="210" r="1" fill="#454A53"/>
<circle cx="69.7827" cy="210" r="1" fill="#454A53"/>
<circle cx="81.8044" cy="210" r="1" fill="#454A53"/>
<circle cx="93.8262" cy="210" r="1" fill="#454A53"/>
<circle cx="105.848" cy="210" r="1" fill="#454A53"/>
<circle cx="117.87" cy="210" r="1" fill="#454A53"/>
<circle cx="129.891" cy="210" r="1" fill="#454A53"/>
<circle cx="141.913" cy="210" r="1" fill="#454A53"/>
<circle cx="153.935" cy="210" r="1" fill="#454A53"/>
<circle cx="165.957" cy="210" r="1" fill="#454A53"/>
<circle cx="177.978" cy="210" r="1" fill="#454A53"/>
<circle cx="190" cy="210" r="1" fill="#454A53"/>
<circle cx="202.022" cy="210" r="1" fill="#454A53"/>
<circle cx="214.043" cy="210" r="1" fill="#454A53"/>
<circle cx="226.065" cy="210" r="1" fill="#454A53"/>
<circle cx="238.087" cy="210" r="1" fill="#454A53"/>
<circle cx="250.109" cy="210" r="1" fill="#454A53"/>
<circle cx="262.13" cy="210" r="1" fill="#454A53"/>
<circle cx="274.152" cy="210" r="1" fill="#454A53"/>
<circle cx="286.174" cy="210" r="1" fill="#454A53"/>
<circle cx="298.196" cy="210" r="1" fill="#454A53"/>
<circle cx="310.217" cy="210" r="1" fill="#454A53"/>
<circle cx="322.239" cy="210" r="1" fill="#454A53"/>
<circle cx="334.261" cy="210" r="1" fill="#454A53"/>
<circle cx="346.282" cy="210" r="1" fill="#454A53"/>
<circle cx="358.304" cy="210" r="1" fill="#454A53"/>
<circle cx="370.326" cy="210" r="1" fill="#454A53"/>
<circle cx="9.67383" cy="222" r="1" fill="#454A53"/>
<circle cx="21.6956" cy="222" r="1" fill="#454A53"/>
<circle cx="33.7173" cy="222" r="1" fill="#454A53"/>
<circle cx="45.739" cy="222" r="1" fill="#454A53"/>
<circle cx="57.7607" cy="222" r="1" fill="#454A53"/>
<circle cx="69.7827" cy="222" r="1" fill="#454A53"/>
<circle cx="81.8044" cy="222" r="1" fill="#454A53"/>
<circle cx="93.8262" cy="222" r="1" fill="#454A53"/>
<circle cx="105.848" cy="222" r="1" fill="#454A53"/>
<circle cx="117.87" cy="222" r="1" fill="#454A53"/>
<circle cx="129.891" cy="222" r="1" fill="#454A53"/>
<circle cx="141.913" cy="222" r="1" fill="#454A53"/>
<circle cx="153.935" cy="222" r="1" fill="#454A53"/>
<circle cx="165.957" cy="222" r="1" fill="#454A53"/>
<circle cx="177.978" cy="222" r="1" fill="#454A53"/>
<circle cx="190" cy="222" r="1" fill="#454A53"/>
<circle cx="202.022" cy="222" r="1" fill="#454A53"/>
<circle cx="214.043" cy="222" r="1" fill="#454A53"/>
<circle cx="226.065" cy="222" r="1" fill="#454A53"/>
<circle cx="238.087" cy="222" r="1" fill="#454A53"/>
<circle cx="250.109" cy="222" r="1" fill="#454A53"/>
<circle cx="262.13" cy="222" r="1" fill="#454A53"/>
<circle cx="274.152" cy="222" r="1" fill="#454A53"/>
<circle cx="286.174" cy="222" r="1" fill="#454A53"/>
<circle cx="298.196" cy="222" r="1" fill="#454A53"/>
<circle cx="310.217" cy="222" r="1" fill="#454A53"/>
<circle cx="322.239" cy="222" r="1" fill="#454A53"/>
<circle cx="334.261" cy="222" r="1" fill="#454A53"/>
<circle cx="346.282" cy="222" r="1" fill="#454A53"/>
<circle cx="358.304" cy="222" r="1" fill="#454A53"/>
<circle cx="370.326" cy="222" r="1" fill="#454A53"/>
<circle cx="9.67383" cy="234" r="1" fill="#454A53"/>
<circle cx="21.6956" cy="234" r="1" fill="#454A53"/>
<circle cx="33.7173" cy="234" r="1" fill="#454A53"/>
<circle cx="45.739" cy="234" r="1" fill="#454A53"/>
<circle cx="57.7607" cy="234" r="1" fill="#454A53"/>
<circle cx="69.7827" cy="234" r="1" fill="#454A53"/>
<circle cx="81.8044" cy="234" r="1" fill="#454A53"/>
<circle cx="93.8262" cy="234" r="1" fill="#454A53"/>
<circle cx="105.848" cy="234" r="1" fill="#454A53"/>
<circle cx="117.87" cy="234" r="1" fill="#454A53"/>
<circle cx="129.891" cy="234" r="1" fill="#454A53"/>
<circle cx="141.913" cy="234" r="1" fill="#454A53"/>
<circle cx="153.935" cy="234" r="1" fill="#454A53"/>
<circle cx="165.957" cy="234" r="1" fill="#454A53"/>
<circle cx="177.978" cy="234" r="1" fill="#454A53"/>
<circle cx="190" cy="234" r="1" fill="#454A53"/>
<circle cx="202.022" cy="234" r="1" fill="#454A53"/>
<circle cx="214.043" cy="234" r="1" fill="#454A53"/>
<circle cx="226.065" cy="234" r="1" fill="#454A53"/>
<circle cx="238.087" cy="234" r="1" fill="#454A53"/>
<circle cx="250.109" cy="234" r="1" fill="#454A53"/>
<circle cx="262.13" cy="234" r="1" fill="#454A53"/>
<circle cx="274.152" cy="234" r="1" fill="#454A53"/>
<circle cx="286.174" cy="234" r="1" fill="#454A53"/>
<circle cx="298.196" cy="234" r="1" fill="#454A53"/>
<circle cx="310.217" cy="234" r="1" fill="#454A53"/>
<circle cx="322.239" cy="234" r="1" fill="#454A53"/>
<circle cx="334.261" cy="234" r="1" fill="#454A53"/>
<circle cx="346.282" cy="234" r="1" fill="#454A53"/>
<circle cx="358.304" cy="234" r="1" fill="#454A53"/>
<circle cx="370.326" cy="234" r="1" fill="#454A53"/>
<circle cx="9.67383" cy="246" r="1" fill="#454A53"/>
<circle cx="21.6956" cy="246" r="1" fill="#454A53"/>
<circle cx="33.7173" cy="246" r="1" fill="#454A53"/>
<circle cx="45.739" cy="246" r="1" fill="#454A53"/>
<circle cx="57.7607" cy="246" r="1" fill="#454A53"/>
<circle cx="69.7827" cy="246" r="1" fill="#454A53"/>
<circle cx="81.8044" cy="246" r="1" fill="#454A53"/>
<circle cx="93.8262" cy="246" r="1" fill="#454A53"/>
<circle cx="105.848" cy="246" r="1" fill="#454A53"/>
<circle cx="117.87" cy="246" r="1" fill="#454A53"/>
<circle cx="129.891" cy="246" r="1" fill="#454A53"/>
<circle cx="141.913" cy="246" r="1" fill="#454A53"/>
<circle cx="153.935" cy="246" r="1" fill="#454A53"/>
<circle cx="165.957" cy="246" r="1" fill="#454A53"/>
<circle cx="177.978" cy="246" r="1" fill="#454A53"/>
<circle cx="190" cy="246" r="1" fill="#454A53"/>
<circle cx="202.022" cy="246" r="1" fill="#454A53"/>
<circle cx="214.043" cy="246" r="1" fill="#454A53"/>
<circle cx="226.065" cy="246" r="1" fill="#454A53"/>
<circle cx="238.087" cy="246" r="1" fill="#454A53"/>
<circle cx="250.109" cy="246" r="1" fill="#454A53"/>
<circle cx="262.13" cy="246" r="1" fill="#454A53"/>
<circle cx="274.152" cy="246" r="1" fill="#454A53"/>
<circle cx="286.174" cy="246" r="1" fill="#454A53"/>
<circle cx="298.196" cy="246" r="1" fill="#454A53"/>
<circle cx="310.217" cy="246" r="1" fill="#454A53"/>
<circle cx="322.239" cy="246" r="1" fill="#454A53"/>
<circle cx="334.261" cy="246" r="1" fill="#454A53"/>
<circle cx="346.282" cy="246" r="1" fill="#454A53"/>
<circle cx="358.304" cy="246" r="1" fill="#454A53"/>
<circle cx="370.326" cy="246" r="1" fill="#454A53"/>
<circle cx="9.67383" cy="258" r="1" fill="#454A53"/>
<circle cx="21.6956" cy="258" r="1" fill="#454A53"/>
<circle cx="33.7173" cy="258" r="1" fill="#454A53"/>
<circle cx="45.739" cy="258" r="1" fill="#454A53"/>
<circle cx="57.7607" cy="258" r="1" fill="#454A53"/>
<circle cx="69.7827" cy="258" r="1" fill="#454A53"/>
<circle cx="81.8044" cy="258" r="1" fill="#454A53"/>
<circle cx="93.8262" cy="258" r="1" fill="#454A53"/>
<circle cx="105.848" cy="258" r="1" fill="#454A53"/>
<circle cx="117.87" cy="258" r="1" fill="#454A53"/>
<circle cx="129.891" cy="258" r="1" fill="#454A53"/>
<circle cx="141.913" cy="258" r="1" fill="#454A53"/>
<circle cx="153.935" cy="258" r="1" fill="#454A53"/>
<circle cx="165.957" cy="258" r="1" fill="#454A53"/>
<circle cx="177.978" cy="258" r="1" fill="#454A53"/>
<circle cx="190" cy="258" r="1" fill="#454A53"/>
<circle cx="202.022" cy="258" r="1" fill="#454A53"/>
<circle cx="214.043" cy="258" r="1" fill="#454A53"/>
<circle cx="226.065" cy="258" r="1" fill="#454A53"/>
<circle cx="238.087" cy="258" r="1" fill="#454A53"/>
<circle cx="250.109" cy="258" r="1" fill="#454A53"/>
<circle cx="262.13" cy="258" r="1" fill="#454A53"/>
<circle cx="274.152" cy="258" r="1" fill="#454A53"/>
<circle cx="286.174" cy="258" r="1" fill="#454A53"/>
<circle cx="298.196" cy="258" r="1" fill="#454A53"/>
<circle cx="310.217" cy="258" r="1" fill="#454A53"/>
<circle cx="322.239" cy="258" r="1" fill="#454A53"/>
<circle cx="334.261" cy="258" r="1" fill="#454A53"/>
<circle cx="346.282" cy="258" r="1" fill="#454A53"/>
<circle cx="358.304" cy="258" r="1" fill="#454A53"/>
<circle cx="370.326" cy="258" r="1" fill="#454A53"/>
<circle cx="9.67383" cy="270" r="1" fill="#454A53"/>
<circle cx="21.6956" cy="270" r="1" fill="#454A53"/>
<circle cx="33.7173" cy="270" r="1" fill="#454A53"/>
<circle cx="45.739" cy="270" r="1" fill="#454A53"/>
<circle cx="57.7607" cy="270" r="1" fill="#454A53"/>
<circle cx="69.7827" cy="270" r="1" fill="#454A53"/>
<circle cx="81.8044" cy="270" r="1" fill="#454A53"/>
<circle cx="93.8262" cy="270" r="1" fill="#454A53"/>
<circle cx="105.848" cy="270" r="1" fill="#454A53"/>
<circle cx="117.87" cy="270" r="1" fill="#454A53"/>
<circle cx="129.891" cy="270" r="1" fill="#454A53"/>
<circle cx="141.913" cy="270" r="1" fill="#454A53"/>
<circle cx="153.935" cy="270" r="1" fill="#454A53"/>
<circle cx="165.957" cy="270" r="1" fill="#454A53"/>
<circle cx="177.978" cy="270" r="1" fill="#454A53"/>
<circle cx="190" cy="270" r="1" fill="#454A53"/>
<circle cx="202.022" cy="270" r="1" fill="#454A53"/>
<circle cx="214.043" cy="270" r="1" fill="#454A53"/>
<circle cx="226.065" cy="270" r="1" fill="#454A53"/>
<circle cx="238.087" cy="270" r="1" fill="#454A53"/>
<circle cx="250.109" cy="270" r="1" fill="#454A53"/>
<circle cx="262.13" cy="270" r="1" fill="#454A53"/>
<circle cx="274.152" cy="270" r="1" fill="#454A53"/>
<circle cx="286.174" cy="270" r="1" fill="#454A53"/>
<circle cx="298.196" cy="270" r="1" fill="#454A53"/>
<circle cx="310.217" cy="270" r="1" fill="#454A53"/>
<circle cx="322.239" cy="270" r="1" fill="#454A53"/>
<circle cx="334.261" cy="270" r="1" fill="#454A53"/>
<circle cx="346.282" cy="270" r="1" fill="#454A53"/>
<circle cx="358.304" cy="270" r="1" fill="#454A53"/>
<circle cx="370.326" cy="270" r="1" fill="#454A53"/>
<circle cx="9.67383" cy="282" r="1" fill="#454A53"/>
<circle cx="21.6956" cy="282" r="1" fill="#454A53"/>
<circle cx="33.7173" cy="282" r="1" fill="#454A53"/>
<circle cx="45.739" cy="282" r="1" fill="#454A53"/>
<circle cx="57.7607" cy="282" r="1" fill="#454A53"/>
<circle cx="69.7827" cy="282" r="1" fill="#454A53"/>
<circle cx="81.8044" cy="282" r="1" fill="#454A53"/>
<circle cx="93.8262" cy="282" r="1" fill="#454A53"/>
<circle cx="105.848" cy="282" r="1" fill="#454A53"/>
<circle cx="117.87" cy="282" r="1" fill="#454A53"/>
<circle cx="129.891" cy="282" r="1" fill="#454A53"/>
<circle cx="141.913" cy="282" r="1" fill="#454A53"/>
<circle cx="153.935" cy="282" r="1" fill="#454A53"/>
<circle cx="165.957" cy="282" r="1" fill="#454A53"/>
<circle cx="177.978" cy="282" r="1" fill="#454A53"/>
<circle cx="190" cy="282" r="1" fill="#454A53"/>
<circle cx="202.022" cy="282" r="1" fill="#454A53"/>
<circle cx="214.043" cy="282" r="1" fill="#454A53"/>
<circle cx="226.065" cy="282" r="1" fill="#454A53"/>
<circle cx="238.087" cy="282" r="1" fill="#454A53"/>
<circle cx="250.109" cy="282" r="1" fill="#454A53"/>
<circle cx="262.13" cy="282" r="1" fill="#454A53"/>
<circle cx="274.152" cy="282" r="1" fill="#454A53"/>
<circle cx="286.174" cy="282" r="1" fill="#454A53"/>
<circle cx="298.196" cy="282" r="1" fill="#454A53"/>
<circle cx="310.217" cy="282" r="1" fill="#454A53"/>
<circle cx="322.239" cy="282" r="1" fill="#454A53"/>
<circle cx="334.261" cy="282" r="1" fill="#454A53"/>
<circle cx="346.282" cy="282" r="1" fill="#454A53"/>
<circle cx="358.304" cy="282" r="1" fill="#454A53"/>
<circle cx="370.326" cy="282" r="1" fill="#454A53"/>
<circle cx="9.67383" cy="294" r="1" fill="#454A53"/>
<circle cx="21.6956" cy="294" r="1" fill="#454A53"/>
<circle cx="33.7173" cy="294" r="1" fill="#454A53"/>
<circle cx="45.739" cy="294" r="1" fill="#454A53"/>
<circle cx="57.7607" cy="294" r="1" fill="#454A53"/>
<circle cx="69.7827" cy="294" r="1" fill="#454A53"/>
<circle cx="81.8044" cy="294" r="1" fill="#454A53"/>
<circle cx="93.8262" cy="294" r="1" fill="#454A53"/>
<circle cx="105.848" cy="294" r="1" fill="#454A53"/>
<circle cx="117.87" cy="294" r="1" fill="#454A53"/>
<circle cx="129.891" cy="294" r="1" fill="#454A53"/>
<circle cx="141.913" cy="294" r="1" fill="#454A53"/>
<circle cx="153.935" cy="294" r="1" fill="#454A53"/>
<circle cx="165.957" cy="294" r="1" fill="#454A53"/>
<circle cx="177.978" cy="294" r="1" fill="#454A53"/>
<circle cx="190" cy="294" r="1" fill="#454A53"/>
<circle cx="202.022" cy="294" r="1" fill="#454A53"/>
<circle cx="214.043" cy="294" r="1" fill="#454A53"/>
<circle cx="226.065" cy="294" r="1" fill="#454A53"/>
<circle cx="238.087" cy="294" r="1" fill="#454A53"/>
<circle cx="250.109" cy="294" r="1" fill="#454A53"/>
<circle cx="262.13" cy="294" r="1" fill="#454A53"/>
<circle cx="274.152" cy="294" r="1" fill="#454A53"/>
<circle cx="286.174" cy="294" r="1" fill="#454A53"/>
<circle cx="298.196" cy="294" r="1" fill="#454A53"/>
<circle cx="310.217" cy="294" r="1" fill="#454A53"/>
<circle cx="322.239" cy="294" r="1" fill="#454A53"/>
<circle cx="334.261" cy="294" r="1" fill="#454A53"/>
<circle cx="346.282" cy="294" r="1" fill="#454A53"/>
<circle cx="358.304" cy="294" r="1" fill="#454A53"/>
<circle cx="370.326" cy="294" r="1" fill="#454A53"/>
</svg>
