<svg width="140" height="40" viewBox="0 0 140 40" fill="none" xmlns="http://www.w3.org/2000/svg">
<path d="M35.2481 27.7862V15.6629H31.3481V13.2383H41.9741V15.6629H38.0591V27.7862H35.2481Z" fill="#E45B00"/>
<path d="M42.9009 16.2832V27.7865H45.7104V16.2832H42.9009Z" fill="#E45B00"/>
<path d="M45.9297 14.3756C45.9411 14.5583 45.9097 14.7412 45.8378 14.9098C45.766 15.0783 45.6557 15.2279 45.5157 15.3466C45.2397 15.5722 44.8317 15.6857 44.2947 15.6857C43.2057 15.6857 42.6607 15.249 42.6597 14.3756C42.6597 13.4792 43.2057 13.043 44.2947 13.043C45.3837 13.043 45.9297 13.4852 45.9297 14.3756Z" fill="#E45B00"/>
<path d="M52.324 27.8053C51.024 27.8053 49.9545 27.5409 49.1155 27.0121C48.289 26.5 47.637 25.7512 47.245 24.8638C46.8292 23.9082 46.6222 22.8755 46.6375 21.8341C46.6265 20.7799 46.8306 19.7344 47.2375 18.7611C47.6158 17.8511 48.2543 17.0718 49.0735 16.5202C49.9005 15.9635 50.9555 15.6846 52.2385 15.6836C53.3885 15.6836 54.325 15.9002 55.048 16.3335C55.7318 16.7247 56.2769 17.3177 56.608 18.0306C56.9258 18.7323 57.0441 19.5074 56.95 20.2715L54.4945 20.4911C54.5095 19.6545 54.307 19.019 53.887 18.5848C53.6688 18.3647 53.4067 18.1925 53.1176 18.0792C52.8285 17.966 52.5189 17.9143 52.2085 17.9275C51.8394 17.9225 51.4737 17.9979 51.1369 18.1483C50.8 18.2987 50.5003 18.5206 50.2585 18.7984C49.7275 19.3791 49.462 20.3452 49.462 21.6967C49.462 23.0193 49.7275 24.0073 50.2585 24.6606C50.5071 24.9763 50.8266 25.2295 51.1913 25.3997C51.5561 25.5699 51.9559 25.6524 52.3585 25.6406C52.9775 25.6406 53.4645 25.5012 53.8195 25.2223C54.1711 24.9458 54.4296 24.569 54.5605 24.1422C54.7021 23.7012 54.7531 23.2363 54.7105 22.7753L57.3205 22.9247C57.4023 23.757 57.2653 24.5962 56.923 25.3598C56.5733 26.1119 55.9915 26.7332 55.2625 27.1331C54.4955 27.5823 53.516 27.8063 52.324 27.8053Z" fill="#E45B00"/>
<path d="M58.2612 27.7863V12.5781H61.0047V20.8186C61.7498 20.5184 62.4381 20.094 63.0402 19.5637C63.5841 19.0851 64.0569 18.5318 64.4442 17.9204C64.7757 17.4122 65.0121 16.8483 65.1417 16.2562H68.3277C68.1165 17.0315 67.768 17.763 67.2987 18.4164C66.779 19.1477 66.1485 19.7943 65.4297 20.3331C64.6502 20.9214 63.7743 21.3707 62.8407 21.6612V21.8375C63.7707 21.7344 64.5327 21.7494 65.1312 21.8808C65.6593 21.9811 66.1536 22.2123 66.5682 22.5531C66.9286 22.8673 67.2123 23.2592 67.3977 23.6989C67.5975 24.1722 67.7531 24.6628 67.8627 25.1645L68.4162 27.7863H65.3847L65.0967 25.9354C65.0225 25.4155 64.8892 24.9058 64.6992 24.416C64.5251 23.9784 64.215 23.6078 63.8142 23.3583C63.4022 23.0934 62.8022 22.9609 62.0142 22.9609H60.9972V27.7863H58.2612Z" fill="#E45B00"/>
<path d="M74.0741 27.8043C72.7471 27.8043 71.6666 27.5439 70.8326 27.023C70.0172 26.5221 69.3762 25.7836 68.9966 24.9076C68.594 23.9633 68.3942 22.9455 68.4101 21.9197C68.401 20.8596 68.5987 19.8079 68.9921 18.8228C69.3517 17.9074 69.9708 17.1158 70.7741 16.5446C71.5741 15.9719 72.61 15.6855 73.882 15.6855C75.092 15.6855 76.0881 15.9574 76.8701 16.5012C77.6547 17.0492 78.2404 17.8353 78.5396 18.7421C78.8716 19.6893 78.9566 20.7799 78.7945 22.0138L71.1445 22.1244C71.2335 24.4748 72.2296 25.6501 74.1326 25.6501C74.7526 25.6501 75.2391 25.5325 75.5921 25.2975C75.9298 25.0829 76.1895 24.7661 76.3331 24.3937C76.4723 24.0285 76.5291 23.6373 76.4996 23.2478L79.0871 23.3972C79.118 24.1278 78.9665 24.8547 78.6461 25.5126C78.2956 26.2159 77.7349 26.7937 77.0411 27.1664C76.2921 27.5927 75.3031 27.8053 74.0741 27.8043ZM73.8746 17.9548C73.1086 17.9548 72.5151 18.1824 72.0941 18.6376C71.6461 19.1564 71.353 19.7899 71.2481 20.4661L76.2491 20.378C76.1891 19.6151 75.9641 19.02 75.5741 18.5927C75.1841 18.1655 74.6196 17.9528 73.8806 17.9548H73.8746Z" fill="#E45B00"/>
<path d="M100.412 16.2837L98.4205 25.3967H98.3095L96.424 16.2837H93.2875L91.324 25.3967H91.192L89.3275 16.2837H83.224V13.7246H81.517L81.4735 14.2759C81.4135 15.0238 81.229 15.5855 80.92 15.961C80.611 16.3365 80.111 16.5606 79.42 16.6333H79.084V18.5067H80.434V24.1687C80.4383 24.6025 80.4886 25.0346 80.584 25.4579C80.6797 25.9047 80.8561 26.3304 81.1045 26.7143C81.3769 27.1228 81.7553 27.4501 82.1995 27.6615C82.6795 27.9035 83.303 28.025 84.07 28.026C84.381 28.0241 84.6915 27.9982 84.9985 27.9483C85.3579 27.8881 85.7128 27.8033 86.0605 27.6944V25.1547C85.8553 25.2938 85.6267 25.395 85.3855 25.4535C85.1585 25.5153 84.9247 25.5489 84.6895 25.5536C84.3111 25.5655 83.9412 25.4402 83.6485 25.201C83.3675 24.9649 83.2275 24.5461 83.2285 23.9446V18.5664H86.9605L89.3275 27.787H92.9995L94.7485 19.2716H94.8595L96.5395 27.787H100.235L103.244 16.2837H100.412Z" fill="#E45B00"/>
<path d="M106.146 28.0856C105.573 28.0884 105.006 27.9798 104.476 27.7659C103.963 27.5613 103.523 27.2079 103.215 26.7515C102.897 26.2904 102.738 25.6848 102.739 24.9349C102.739 24.2437 102.872 23.678 103.137 23.2378C103.401 22.7984 103.774 22.4342 104.221 22.1801C104.703 21.9056 105.22 21.698 105.759 21.5631C106.327 21.4137 106.912 21.2912 107.518 21.1881C108.318 21.0566 108.916 20.9466 109.311 20.8579C109.706 20.7693 109.971 20.6627 110.106 20.5382C110.174 20.4708 110.227 20.3897 110.261 20.3003C110.295 20.211 110.31 20.1154 110.305 20.0198C110.319 19.7676 110.272 19.5157 110.168 19.2854C110.063 19.0552 109.905 18.8536 109.705 18.6977C109.265 18.3795 108.732 18.217 108.189 18.2361C107.802 18.2367 107.419 18.3112 107.061 18.4557C106.688 18.6055 106.366 18.8579 106.132 19.1832C105.88 19.5209 105.748 19.984 105.733 20.5711L103.212 20.3291C103.198 19.6009 103.358 18.8799 103.68 18.2256C103.961 17.6851 104.374 17.223 104.88 16.8811C105.374 16.5506 105.925 16.3122 106.506 16.1774C107.078 16.0391 107.665 15.9684 108.255 15.9668C109.788 15.9668 110.968 16.3891 111.795 17.2337C112.622 18.0782 113.035 19.3232 113.034 20.9685V23.0839C113.047 23.8617 113.054 24.6435 113.055 25.4294V27.7868H110.571C110.586 27.1892 110.604 26.5946 110.626 26.003C110.648 25.4114 110.667 24.7944 110.682 24.152H110.532C110.45 24.8613 110.206 25.5425 109.819 26.1435C109.439 26.7352 108.918 27.2238 108.303 27.5657C107.641 27.9235 106.898 28.1028 106.146 28.0856ZM107.164 25.9477C107.664 25.9402 108.155 25.8077 108.591 25.5623C109.09 25.2839 109.504 24.8768 109.791 24.3836C110.115 23.8548 110.284 23.179 110.299 22.3563V22.1576C109.955 22.301 109.595 22.4043 109.227 22.4654C108.82 22.5401 108.405 22.6148 107.977 22.6865C107.569 22.7538 107.167 22.8573 106.777 22.9957C106.438 23.107 106.13 23.2953 105.877 23.5455C105.758 23.6765 105.667 23.8296 105.608 23.996C105.549 24.1624 105.524 24.3389 105.534 24.5151C105.522 24.7132 105.556 24.9114 105.633 25.0947C105.709 25.2779 105.827 25.4414 105.976 25.5728C106.311 25.8414 106.734 25.9771 107.164 25.9537V25.9477Z" fill="#E45B00"/>
<path d="M113.778 27.7728V25.4139L119.685 18.6912V18.5582H113.911V16.2695H123.004V18.6494L117.118 25.3721V25.4826H123.048V27.7743L113.778 27.7728Z" fill="#E45B00"/>
<path d="M129.174 27.8053C127.847 27.8053 126.766 27.5449 125.932 27.024C125.116 26.5236 124.475 25.7849 124.096 24.9086C123.694 23.9643 123.494 22.9465 123.51 21.9208C123.498 20.8612 123.693 19.8094 124.084 18.8238C124.443 17.9078 125.062 17.1153 125.865 16.5426C126.665 15.9699 127.701 15.6836 128.974 15.6836C130.183 15.6836 131.179 15.9555 131.961 16.4993C132.745 17.0477 133.331 17.8336 133.632 18.7402C133.964 19.6873 134.048 20.7779 133.885 22.0119L126.235 22.1224C126.323 24.4729 127.319 25.6481 129.222 25.6481C129.842 25.6481 130.329 25.5306 130.683 25.2955C131.02 25.0805 131.28 24.7639 131.424 24.3917C131.563 24.0266 131.62 23.6353 131.589 23.2459L134.178 23.3953C134.208 24.126 134.056 24.8528 133.735 25.5107C133.384 26.2161 132.821 26.7952 132.124 27.1674C131.381 27.5937 130.398 27.8063 129.174 27.8053ZM128.974 17.9559C128.206 17.9559 127.614 18.1844 127.192 18.6386C126.743 19.1569 126.448 19.7904 126.342 20.4672L131.341 20.379C131.282 19.6161 131.057 19.021 130.666 18.5938C130.276 18.1695 129.711 17.9559 128.974 17.9559Z" fill="#E45B00"/>
<path d="M8.67405 28.0731L8.74155 18.1504H6.40455C6.35668 18.6434 6.12646 19.1011 5.75865 19.4344C5.39083 19.7678 4.9117 19.9531 4.41438 19.9542C3.91706 19.9553 3.43709 19.7722 3.06776 19.4405C2.69844 19.1088 2.46615 18.6521 2.41605 18.1594H0.175049L0.188549 21.7448C0.192361 22.7555 0.591623 23.725 1.30155 24.4473L9.90105 33.2017C8.43705 31.6316 8.65905 29.8568 8.67405 28.0731Z" fill="#E45B00"/>
<path d="M5.32462 15.8955L15.2891 15.9627V13.6351C14.794 13.5882 14.3341 13.3596 13.9988 12.9938C13.6635 12.628 13.4768 12.151 13.4749 11.6557C13.4731 11.1604 13.6562 10.6821 13.9887 10.3138C14.3212 9.94542 14.7794 9.71339 15.2741 9.66277V7.42188L11.6816 7.43681C10.6669 7.4414 9.6938 7.83893 8.96812 8.54531L0.172119 17.1175C1.75162 15.6624 3.53362 15.8835 5.32462 15.8955Z" fill="#E45B00"/>
<path d="M21.058 24.74L11.095 24.6727V27.0003C11.59 27.0478 12.0496 27.2769 12.3845 27.6431C12.7194 28.0093 12.9055 28.4864 12.9068 28.9817C12.9082 29.477 12.7245 29.9551 12.3916 30.3231C12.0586 30.691 11.6002 30.9226 11.1055 30.9726V33.2135L14.7055 33.1986C15.7198 33.1944 16.6926 32.7968 17.4175 32.0901L26.2075 23.5254C24.6325 24.973 22.8505 24.7519 21.058 24.74Z" fill="#E45B00"/>
<path d="M17.7099 12.5633L17.6439 22.4875H19.3794H19.9794C20.0275 22.0001 20.2538 21.5473 20.6153 21.2154C20.9768 20.8834 21.4482 20.6953 21.9398 20.687C22.4315 20.6787 22.909 20.8508 23.2816 21.1703C23.6542 21.4899 23.8958 21.9348 23.9604 22.4202C23.9604 22.4397 23.9604 22.4576 23.9604 22.477H26.2104L26.1954 18.8916C26.1916 17.8808 25.7923 16.9114 25.0824 16.1891L23.9634 15.0507L16.4829 7.43164C17.9454 9.00475 17.7219 10.7795 17.7099 12.5633Z" fill="#E45B00"/>
</svg>
