<svg id="Layer_1" data-name="Layer 1" xmlns="http://www.w3.org/2000/svg" viewBox="0 0 800.16 795.38"><defs><style>.cls-1{fill:#e45b00;}</style></defs><path class="cls-1" d="M261.08,637l2.07-306.21-71.83.18a61.59,61.59,0,0,1-122.58.31l-68.91.17L.29,441.86A120,120,0,0,0,34.5,525.25L298.79,795.38C253.87,746.83,260.71,692.05,261.08,637Z"/><path class="cls-1" d="M158.23,261.25l306.21,2.07-.18-71.83A61.6,61.6,0,0,1,464,68.9L463.78,0,353.35.46A119.94,119.94,0,0,0,270,34.67L-.17,299C48.39,254,103.17,260.87,158.23,261.25Z"/><path class="cls-1" d="M641.77,534.14l-306.21-2.08.18,71.84a61.59,61.59,0,0,1,.31,122.58l.17,68.9,110.42-.45A119.92,119.92,0,0,0,530,760.72L800.16,496.43C751.61,541.35,696.83,534.51,641.77,534.14Z"/><path class="cls-1" d="M538.87,158.4l-2,306.21,53.37-.11,18.46-.06A61.58,61.58,0,0,1,731,462.36c.08.61.14,1.18.2,1.76l68.94-.17-.46-110.43a119.93,119.93,0,0,0-34.21-83.37l0,0L731.07,235,501.16,0C546.11,48.58,539.24,103.33,538.87,158.4Z"/></svg>