<svg width="35" height="35" viewBox="0 0 35 35" fill="none" xmlns="http://www.w3.org/2000/svg">
<rect width="35" height="35" rx="17.5" fill="#F1F2F3"/>
<path opacity="0.4" d="M17.4993 25.8333C22.1017 25.8333 25.8327 22.1023 25.8327 17.5C25.8327 12.8976 22.1017 9.16663 17.4993 9.16663C12.897 9.16663 9.16602 12.8976 9.16602 17.5C9.16602 22.1023 12.897 25.8333 17.4993 25.8333Z" fill="#0D0D0D"/>
<path d="M18.3841 17.5L20.3008 15.5834C20.5424 15.3417 20.5424 14.9417 20.3008 14.7C20.0591 14.4584 19.6591 14.4584 19.4174 14.7L17.5008 16.6167L15.5841 14.7C15.3424 14.4584 14.9424 14.4584 14.7008 14.7C14.4591 14.9417 14.4591 15.3417 14.7008 15.5834L16.6174 17.5L14.7008 19.4167C14.4591 19.6584 14.4591 20.0584 14.7008 20.3C14.8258 20.425 14.9841 20.4834 15.1424 20.4834C15.3008 20.4834 15.4591 20.425 15.5841 20.3L17.5008 18.3834L19.4174 20.3C19.5424 20.425 19.7008 20.4834 19.8591 20.4834C20.0174 20.4834 20.1758 20.425 20.3008 20.3C20.5424 20.0584 20.5424 19.6584 20.3008 19.4167L18.3841 17.5Z" fill="#0D0D0D"/>
</svg>
