<svg width="15" height="15" viewBox="0 0 15 15" fill="none" xmlns="http://www.w3.org/2000/svg">
<path opacity="0.4" d="M13.7656 10.5141L11.8093 5.93913C11.4531 5.10163 10.9218 4.62663 10.3156 4.59538C9.71558 4.56413 9.13433 4.98288 8.69058 5.78288L7.50308 7.91413C7.25308 8.36413 6.89683 8.63288 6.50933 8.66413C6.11558 8.70163 5.72183 8.49538 5.40308 8.08913L5.26558 7.91413C4.82183 7.35788 4.27183 7.08913 3.70933 7.14538C3.14683 7.20163 2.66558 7.58913 2.34683 8.22038L1.26558 10.3766C0.878077 11.1579 0.915577 12.0641 1.37183 12.8016C1.82808 13.5391 2.62183 13.9829 3.49058 13.9829H11.4656C12.3031 13.9829 13.0843 13.5641 13.5468 12.8641C14.0218 12.1641 14.0968 11.2829 13.7656 10.5141Z" fill="white"/>
<path d="M4.35469 5.23672C5.52139 5.23672 6.46719 4.29092 6.46719 3.12422C6.46719 1.95752 5.52139 1.01172 4.35469 1.01172C3.18799 1.01172 2.24219 1.95752 2.24219 3.12422C2.24219 4.29092 3.18799 5.23672 4.35469 5.23672Z" fill="white"/>
</svg>
