<svg width="30" height="30" viewBox="0 0 30 30" fill="none" xmlns="http://www.w3.org/2000/svg">
<path d="M14.9995 4.09094C12.0369 4.09094 11.6651 4.1039 10.5015 4.15685C9.34014 4.21003 8.54744 4.3939 7.85382 4.66367C7.13634 4.94231 6.52772 5.31503 5.92138 5.92162C5.31458 6.52799 4.94186 7.13662 4.66233 7.8539C4.39188 8.54776 4.20779 9.34071 4.15552 10.5016C4.10348 11.6653 4.08984 12.0373 4.08984 15C4.08984 17.9628 4.10303 18.3334 4.15575 19.4971C4.20916 20.6584 4.39302 21.4512 4.66255 22.1448C4.94141 22.8623 5.31412 23.4709 5.9207 24.0773C6.52682 24.6841 7.13543 25.0578 7.85246 25.3364C8.54653 25.6062 9.33946 25.79 10.5006 25.8432C11.6642 25.8962 12.0357 25.9091 14.9981 25.9091C17.961 25.9091 18.3317 25.8962 19.4953 25.8432C20.6566 25.79 21.4502 25.6062 22.1443 25.3364C22.8615 25.0578 23.4693 24.6841 24.0754 24.0773C24.6822 23.4709 25.0549 22.8623 25.3344 22.145C25.6026 21.4512 25.7867 20.6582 25.8412 19.4973C25.8935 18.3337 25.9071 17.9628 25.9071 15C25.9071 12.0373 25.8935 11.6655 25.8412 10.5019C25.7867 9.34049 25.6026 8.54776 25.3344 7.85412C25.0549 7.13662 24.6822 6.52799 24.0754 5.92162C23.4686 5.31481 22.8618 4.94208 22.1436 4.66367C21.4482 4.3939 20.655 4.21003 19.4937 4.15685C18.3301 4.1039 17.9597 4.09094 14.9961 4.09094H14.9995ZM14.0209 6.05685C14.3114 6.0564 14.6354 6.05685 14.9995 6.05685C17.9122 6.05685 18.2574 6.06731 19.4076 6.11958C20.4712 6.16822 21.0484 6.34594 21.433 6.49526C21.942 6.69299 22.305 6.92935 22.6866 7.31117C23.0684 7.69299 23.3047 8.05662 23.5029 8.56571C23.6522 8.94981 23.8302 9.52708 23.8786 10.5907C23.9308 11.7407 23.9422 12.0862 23.9422 14.9975C23.9422 17.9089 23.9308 18.2543 23.8786 19.4043C23.8299 20.468 23.6522 21.0453 23.5029 21.4293C23.3052 21.9384 23.0684 22.3009 22.6866 22.6825C22.3047 23.0644 21.9423 23.3007 21.433 23.4984C21.0489 23.6484 20.4712 23.8257 19.4076 23.8743C18.2576 23.9266 17.9122 23.938 14.9995 23.938C12.0866 23.938 11.7414 23.9266 10.5915 23.8743C9.52786 23.8253 8.95061 23.6475 8.56584 23.4982C8.05677 23.3005 7.69314 23.0641 7.31134 22.6823C6.92953 22.3005 6.69317 21.9378 6.495 21.4284C6.34568 21.0443 6.16774 20.4671 6.11933 19.4034C6.06706 18.2534 6.0566 17.908 6.0566 14.9948C6.0566 12.0816 6.06706 11.738 6.11933 10.588C6.16796 9.52435 6.34568 8.94708 6.495 8.56253C6.69272 8.05344 6.92953 7.68981 7.31134 7.30799C7.69314 6.92617 8.05677 6.68981 8.56584 6.49162C8.95038 6.34162 9.52786 6.16435 10.5915 6.11549C11.5978 6.07003 11.9878 6.0564 14.0209 6.05412V6.05685ZM20.8225 7.86821C20.0998 7.86821 19.5135 8.4539 19.5135 9.17685C19.5135 9.89958 20.0998 10.4859 20.8225 10.4859C21.5452 10.4859 22.1316 9.89958 22.1316 9.17685C22.1316 8.45412 21.5452 7.86776 20.8225 7.86776V7.86821ZM14.9995 9.39776C11.9057 9.39776 9.39741 11.9062 9.39741 15C9.39741 18.0939 11.9057 20.6012 14.9995 20.6012C18.0933 20.6012 20.6007 18.0939 20.6007 15C20.6007 11.9062 18.0931 9.39776 14.9993 9.39776H14.9995ZM14.9995 11.3637C17.0076 11.3637 18.6358 12.9916 18.6358 15C18.6358 17.0082 17.0076 18.6364 14.9995 18.6364C12.9912 18.6364 11.3633 17.0082 11.3633 15C11.3633 12.9916 12.9912 11.3637 14.9995 11.3637Z" fill="#0D0D0D"/>
</svg>
