<svg width="50" height="50" viewBox="0 0 50 50" fill="none" xmlns="http://www.w3.org/2000/svg">
<path opacity="0.4" d="M35.4141 16.1471C35.0182 16.1471 34.6224 16.0013 34.3099 15.6888C33.7057 15.0846 33.7057 14.0846 34.3099 13.4805L38.5807 9.20963C34.914 6.08463 30.1849 4.16797 24.9974 4.16797C13.4974 4.16797 4.16406 13.5013 4.16406 25.0013C4.16406 36.5013 13.4974 45.8346 24.9974 45.8346C36.4974 45.8346 45.8307 36.5013 45.8307 25.0013C45.8307 19.8138 43.914 15.0846 40.789 11.418L36.5182 15.6888C36.2057 16.0013 35.8099 16.1471 35.4141 16.1471Z" fill="#0D0D0D"/>
<path d="M28.6432 24.625L26.5599 23.8958V19.2708H26.7265C27.789 19.2708 28.6432 20.2083 28.6432 21.3542C28.6432 22.2083 29.3516 22.9167 30.2057 22.9167C31.0599 22.9167 31.7682 22.2083 31.7682 21.3542C31.7682 18.4792 29.5182 16.1458 26.7265 16.1458H26.5599V15.625C26.5599 14.7708 25.8516 14.0625 24.9974 14.0625C24.1432 14.0625 23.4349 14.7708 23.4349 15.625V16.1458H22.8099C20.2891 16.1458 18.2266 18.2708 18.2266 20.8958C18.2266 23.9375 19.9974 24.9167 21.3516 25.3958L23.4349 26.125V30.75H23.2683C22.2058 30.75 21.3516 29.8125 21.3516 28.6667C21.3516 27.8125 20.6432 27.1042 19.7891 27.1042C18.9349 27.1042 18.2266 27.8125 18.2266 28.6667C18.2266 31.5417 20.4766 33.875 23.2683 33.875H23.4349V34.3958C23.4349 35.25 24.1432 35.9583 24.9974 35.9583C25.8516 35.9583 26.5599 35.25 26.5599 34.3958V33.875H27.1849C29.7057 33.875 31.7682 31.75 31.7682 29.125C31.7682 26.0625 29.9974 25.0833 28.6432 24.625ZM22.3724 22.4167C21.664 22.1667 21.3516 22.0208 21.3516 20.875C21.3516 19.9792 22.0183 19.25 22.8099 19.25H23.4349V22.7708L22.3724 22.4167ZM27.1849 30.7292H26.5599V27.2083L27.6224 27.5833C28.3308 27.8333 28.6432 27.9792 28.6432 29.125C28.6432 30 27.9765 30.7292 27.1849 30.7292Z" fill="#0D0D0D"/>
<path d="M47.2683 3.5612C47.1016 3.1862 46.8099 2.87371 46.4141 2.70704C46.2266 2.62371 46.0182 2.58203 45.8099 2.58203H37.4766C36.6224 2.58203 35.9141 3.29036 35.9141 4.14453C35.9141 4.9987 36.6224 5.70703 37.4766 5.70703H42.0391L38.5599 9.18621C39.3516 9.87371 40.0808 10.6029 40.7683 11.3945L44.2474 7.91538V12.4987C44.2474 13.3529 44.9557 14.0612 45.8099 14.0612C46.6641 14.0612 47.3724 13.3529 47.3724 12.4987V4.16537C47.3932 3.95704 47.3516 3.76953 47.2683 3.5612Z" fill="#0D0D0D"/>
</svg>
