<svg width="50" height="50" viewBox="0 0 50 50" fill="none" xmlns="http://www.w3.org/2000/svg">
<path opacity="0.4" d="M40.2083 16.4986V27.2278C40.2083 33.6445 36.5417 36.3944 31.0417 36.3944H12.7292C11.7917 36.3944 10.8958 36.3112 10.0625 36.1237C9.54166 36.0404 9.04167 35.8945 8.58334 35.7279C5.45834 34.5612 3.5625 31.8528 3.5625 27.2278V16.4986C3.5625 10.082 7.22915 7.33203 12.7292 7.33203H31.0417C35.7083 7.33203 39.0625 9.31119 39.9583 13.832C40.1042 14.6654 40.2083 15.5195 40.2083 16.4986Z" fill="#0D0D0D"/>
<path d="M46.4583 22.7486V33.4778C46.4583 39.8945 42.7917 42.6444 37.2917 42.6444H18.9792C17.4375 42.6444 16.0417 42.4362 14.8334 41.9779C12.3542 41.0612 10.6667 39.1654 10.0625 36.1237C10.8958 36.3112 11.7917 36.3944 12.7292 36.3944H31.0417C36.5417 36.3944 40.2083 33.6445 40.2083 27.2278V16.4986C40.2083 15.5195 40.125 14.6445 39.9583 13.832C43.9167 14.6654 46.4583 17.457 46.4583 22.7486Z" fill="#0D0D0D"/>
<path d="M21.875 27.3751C24.9126 27.3751 27.3751 24.9126 27.3751 21.875C27.3751 18.8375 24.9126 16.375 21.875 16.375C18.8375 16.375 16.375 18.8375 16.375 21.875C16.375 24.9126 18.8375 27.3751 21.875 27.3751Z" fill="#292D32"/>
<path d="M9.96094 17.1875C9.10677 17.1875 8.39844 17.8958 8.39844 18.75V25C8.39844 25.8542 9.10677 26.5625 9.96094 26.5625C10.8151 26.5625 11.5234 25.8542 11.5234 25V18.75C11.5234 17.8958 10.8359 17.1875 9.96094 17.1875Z" fill="#292D32"/>
<path d="M33.7734 17.1875C32.9193 17.1875 32.2109 17.8958 32.2109 18.75V25C32.2109 25.8542 32.9193 26.5625 33.7734 26.5625C34.6276 26.5625 35.3359 25.8542 35.3359 25V18.75C35.3359 17.8958 34.6484 17.1875 33.7734 17.1875Z" fill="#292D32"/>
</svg>
