<svg width="10" height="10" viewBox="0 0 10 10" fill="none" xmlns="http://www.w3.org/2000/svg">
<path opacity="0.4" d="M4.9987 9.16537C7.29988 9.16537 9.16537 7.29988 9.16537 4.9987C9.16537 2.69751 7.29988 0.832031 4.9987 0.832031C2.69751 0.832031 0.832031 2.69751 0.832031 4.9987C0.832031 7.29988 2.69751 9.16537 4.9987 9.16537Z" fill="#737C8A"/>
<path d="M4.9987 5.41536C4.76536 5.41536 4.58203 5.22786 4.58203 4.9987C4.58203 4.76953 4.76953 4.58203 4.9987 4.58203C5.22786 4.58203 5.41536 4.76953 5.41536 4.9987C5.41536 5.22786 5.23203 5.41536 4.9987 5.41536Z" fill="#737C8A"/>
<path d="M6.66667 5.41536C6.43333 5.41536 6.25 5.22786 6.25 4.9987C6.25 4.76953 6.4375 4.58203 6.66667 4.58203C6.89583 4.58203 7.08333 4.76953 7.08333 4.9987C7.08333 5.22786 6.9 5.41536 6.66667 5.41536Z" fill="#737C8A"/>
<path d="M3.33464 5.41536C3.1013 5.41536 2.91797 5.22786 2.91797 4.9987C2.91797 4.76953 3.10547 4.58203 3.33464 4.58203C3.5638 4.58203 3.7513 4.76953 3.7513 4.9987C3.7513 5.22786 3.56797 5.41536 3.33464 5.41536Z" fill="#737C8A"/>
</svg>
