<svg width="25" height="25" viewBox="0 0 25 25" fill="none" xmlns="http://www.w3.org/2000/svg">
<path opacity="0.4" d="M21.7087 13.7188C22.1149 13.7188 22.4378 13.3854 22.4378 12.9688V12.0521C22.4378 7.95833 21.1878 6.71875 17.1045 6.71875H10.542V9.25C10.9482 9.25 11.2816 9.58333 11.2816 9.98958V12.7813C11.2816 13.1875 10.9482 13.5208 10.542 13.5208V16.1354C10.9482 16.1354 11.2816 16.4688 11.2816 16.875V19.6667C11.2816 20.0729 10.9482 20.4062 10.542 20.4062V22.9167H17.1045C21.1878 22.9167 22.4378 21.6667 22.4378 17.5833C22.4378 17.1771 22.1149 16.8438 21.7087 16.8438C20.8337 16.8438 20.1357 16.1458 20.1357 15.2812C20.1357 14.4167 20.8337 13.7188 21.7087 13.7188Z" fill="#454A53"/>
<path d="M7.88509 6.72908C7.89551 6.72908 7.89551 6.72908 7.88509 6.72908H7.89551H17.0934C17.1663 6.72908 17.2393 6.72908 17.3018 6.72908C17.2913 6.70825 17.2913 6.69783 17.2913 6.677C17.2601 6.31242 17.4059 5.95825 17.6768 5.68742C17.8122 5.552 17.8955 5.3645 17.8955 5.16659C17.8955 4.96867 17.8122 4.78117 17.6768 4.64575L17.1038 4.06242C16.083 3.03117 14.958 2.08325 13.6455 2.08325C12.3434 2.08325 11.208 3.03117 10.1872 4.06242L7.52051 6.72908C7.63509 6.72908 7.76009 6.72908 7.88509 6.72908Z" fill="#454A53"/>
<path d="M9.80208 9.98966V12.7813C9.80208 13.1876 10.1354 13.5209 10.5417 13.5209V16.1355C10.1354 16.1355 9.80208 16.4688 9.80208 16.8751V19.6667C9.80208 20.073 10.1354 20.4063 10.5417 20.4063V22.9167H7.89583C3.8125 22.9167 2.5625 21.6667 2.5625 17.5834V17.1355C2.5625 16.7188 2.88542 16.3959 3.29167 16.3959C4.16667 16.3959 4.86458 15.6876 4.86458 14.823C4.86458 13.9584 4.16667 13.2501 3.29167 13.2501C2.88542 13.2501 2.5625 12.9272 2.5625 12.5105V12.0626C2.5625 7.96883 3.8125 6.72925 7.89583 6.72925H10.5312V9.2605C10.1354 9.2605 9.80208 9.59383 9.80208 9.98966Z" fill="#454A53"/>
</svg>
