<svg width="50" height="50" viewBox="0 0 50 50" fill="none" xmlns="http://www.w3.org/2000/svg">
<path opacity="0.4" d="M45.8307 16.2721V33.7305C45.8307 39.5846 43.1432 43.6054 38.4141 45.1262C37.0391 45.6054 35.4557 45.8346 33.7266 45.8346H16.2682C14.5391 45.8346 12.9557 45.6054 11.5807 45.1262C6.85156 43.6054 4.16406 39.5846 4.16406 33.7305V16.2721C4.16406 8.6888 8.68489 4.16797 16.2682 4.16797H33.7266C41.3099 4.16797 45.8307 8.6888 45.8307 16.2721Z" fill="#0D0D0D"/>
<path d="M38.4193 45.1263C37.0443 45.6055 35.4609 45.8347 33.7318 45.8347H16.2734C14.5443 45.8347 12.9609 45.6055 11.5859 45.1263C12.3151 39.6263 18.0651 35.3555 25.0026 35.3555C31.9401 35.3555 37.6901 39.6263 38.4193 45.1263Z" fill="#0D0D0D"/>
<path d="M32.4557 24.1263C32.4557 28.2513 29.1224 31.6054 24.9974 31.6054C20.8724 31.6054 17.5391 28.2513 17.5391 24.1263C17.5391 20.0013 20.8724 16.668 24.9974 16.668C29.1224 16.668 32.4557 20.0013 32.4557 24.1263Z" fill="#292D32"/>
</svg>
