<svg id="Layer_1" data-name="Layer 1" xmlns="http://www.w3.org/2000/svg" viewBox="0 0 893.37 172.53"><defs><style>.cls-1{fill:#e45b00;}</style></defs><path class="cls-1" d="M233.84,136.24V55.11h-26V38.89h70.8V55.11H252.57v81.13Z"/><path class="cls-1" d="M284.86,59.24v77H303.6v-77Z"/><path class="cls-1" d="M305.05,46.49a7.86,7.86,0,0,1-2.76,6.5c-1.83,1.51-4.56,2.27-8.13,2.27q-10.91,0-10.9-8.77,0-8.93,10.9-8.91T305.05,46.49Z"/><path class="cls-1" d="M347.65,136.39q-13,0-21.39-5.31A32.18,32.18,0,0,1,313.8,116.7a49.07,49.07,0,0,1-4.06-20.28,52,52,0,0,1,4-20.58,33.54,33.54,0,0,1,12.24-15q8.26-5.61,21.09-5.61,11.51,0,18.73,4.36A25.32,25.32,0,0,1,376.19,71a28.1,28.1,0,0,1,2.29,15l-16.37,1.47q.13-8.4-4.06-12.76t-11.14-4.35a16.89,16.89,0,0,0-13,5.83q-5.31,5.82-5.31,19.39,0,13.27,5.31,19.84a17.13,17.13,0,0,0,14,6.57q6.19,0,9.73-2.81a14.59,14.59,0,0,0,4.94-7.22,22.93,22.93,0,0,0,1-9.15l17.41,1a32.25,32.25,0,0,1-2.66,16.3A26,26,0,0,1,367.27,132Q359.59,136.39,347.65,136.39Z"/><path class="cls-1" d="M387.26,136.24V34.47h18.29V89.63a47.12,47.12,0,0,0,13.57-8.41,50.59,50.59,0,0,0,9.37-11,33.22,33.22,0,0,0,4.64-11.13h21.25a45.38,45.38,0,0,1-6.86,14.45,58.13,58.13,0,0,1-12.47,12.84,56,56,0,0,1-17.26,8.84v1.18c6.2-.68,11.29-.59,15.27.3a20,20,0,0,1,15.12,12.17,56.09,56.09,0,0,1,3.1,9.81L455,136.24h-20.2l-1.92-12.39a46.4,46.4,0,0,0-2.66-10.18,14.78,14.78,0,0,0-5.89-7.08q-4.14-2.66-12-2.65h-6.79v32.3Z"/><path class="cls-1" d="M492.72,136.39q-13.26,0-21.6-5.24A31.15,31.15,0,0,1,458.87,117,49.36,49.36,0,0,1,455,97a54.93,54.93,0,0,1,3.84-20.73A33.91,33.91,0,0,1,470.67,61q8-5.76,20.73-5.76,12.09,0,19.91,5.46a29.69,29.69,0,0,1,11.14,15q3.31,9.53,1.69,21.91l-51,.73Q474,121.94,493,121.94q6.19,0,9.73-2.36a12.6,12.6,0,0,0,4.95-6,17.69,17.69,0,0,0,1.1-7.67l17.26,1a29.72,29.72,0,0,1-2.95,14.16,25.41,25.41,0,0,1-10.69,11.06Q505,136.39,492.72,136.39ZM491.4,70.46c-5.12,0-9.07,1.52-11.88,4.57a24.48,24.48,0,0,0-5.67,12.24l33.33-.59q-.58-7.67-4.5-12C500.08,71.88,496.31,70.46,491.4,70.46Z"/><path class="cls-1" d="M668.27,59.24,655,120.31h-.74L641.72,59.24H620.78l-13.13,61.07h-.89L594.37,59.24h-40.7V42.13H542.31l-.3,3.69q-.59,7.53-3.68,11.29t-10,4.49h-2.22V74.14h9v37.91a41.39,41.39,0,0,0,1,8.63,25.06,25.06,0,0,0,3.47,8.41,18.18,18.18,0,0,0,7.3,6.34q4.79,2.43,12.46,2.43a40,40,0,0,0,6.2-.51,53.84,53.84,0,0,0,7.07-1.7v-17a13.85,13.85,0,0,1-4.49,2,19,19,0,0,1-4.65.66,10.4,10.4,0,0,1-6.93-2.36q-2.81-2.36-2.8-8.41v-36h24.88l15.82,61.66h24.49L630.51,79.3h.74l11.21,56.94h24.63l20.06-77Z"/><path class="cls-1" d="M706.5,138.3a29.08,29.08,0,0,1-11.14-2.14,18.35,18.35,0,0,1-8.41-6.78q-3.16-4.65-3.17-12.17,0-6.93,2.66-11.36a20,20,0,0,1,7.22-7.08,40.94,40.94,0,0,1,10.26-4.13q5.67-1.47,11.72-2.5,8-1.33,12-2.22t5.31-2.13a4.58,4.58,0,0,0,1.33-3.47,10.45,10.45,0,0,0-4.06-8.85,16.14,16.14,0,0,0-10.1-3.1,19.91,19.91,0,0,0-7.52,1.48,14.12,14.12,0,0,0-6.2,4.86q-2.51,3.41-2.66,9.3l-16.81-1.62Q687,78,690.05,72.3a24.38,24.38,0,0,1,8-9,33,33,0,0,1,10.84-4.72,50.52,50.52,0,0,1,11.65-1.4q15.35,0,23.6,8.48t8.26,25v14.16q.15,7.83.15,15.71v15.71H736q.13-6,.37-12t.37-12.39h-1A31.19,31.19,0,0,1,731,125.25a28.44,28.44,0,0,1-10.1,9.51A28.76,28.76,0,0,1,706.5,138.3Zm6.78-14.3a20,20,0,0,0,9.52-2.58,21.39,21.39,0,0,0,8-7.9q3.24-5.31,3.39-13.57V98.63a33.55,33.55,0,0,1-7.16,2.06c-2.7.49-5.48,1-8.33,1.48a47.22,47.22,0,0,0-8,2.06,15.52,15.52,0,0,0-6,3.69,9,9,0,0,0-2.28,6.49,8.79,8.79,0,0,0,2.94,7.08A11.69,11.69,0,0,0,713.28,124Z"/><path class="cls-1" d="M757.38,136.17V120.39l39.38-45v-.88h-38.5V59.18h60.62V75.11l-39.23,45v.74h39.53v15.34Z"/><path class="cls-1" d="M860,136.39q-13.28,0-21.61-5.24A31.13,31.13,0,0,1,826.16,117a49.2,49.2,0,0,1-3.91-20,54.93,54.93,0,0,1,3.84-20.73A33.84,33.84,0,0,1,838,61q8-5.76,20.72-5.76,12.11,0,19.92,5.46a29.61,29.61,0,0,1,11.13,15q3.32,9.53,1.7,21.91l-51,.73q.89,23.61,19.92,23.61,6.2,0,9.73-2.36a12.53,12.53,0,0,0,4.94-6,17.84,17.84,0,0,0,1.11-7.67l17.25,1a29.59,29.59,0,0,1-2.94,14.16,25.44,25.44,0,0,1-10.7,11.06Q872.26,136.39,860,136.39Zm-1.33-65.93q-7.66,0-11.87,4.57a24.49,24.49,0,0,0-5.68,12.24l33.34-.59q-.6-7.67-4.5-12T858.68,70.46Z"/><path class="cls-1" d="M56.67,138.17l.45-66.42-15.58,0A13.36,13.36,0,0,1,15,71.86L0,71.89l.1,24a26,26,0,0,0,7.42,18.08l57.33,58.6C55.1,162,56.59,150.12,56.67,138.17Z"/><path class="cls-1" d="M34.36,56.67l66.42.45,0-15.58A13.36,13.36,0,0,1,100.67,15l0-14.95-24,.1A26,26,0,0,0,58.6,7.52L0,64.85C10.53,55.1,22.41,56.59,34.36,56.67Z"/><path class="cls-1" d="M139.25,115.86l-66.43-.45,0,15.59a13.36,13.36,0,0,1,.07,26.59l0,14.94,24-.1A26.05,26.05,0,0,0,115,165l58.59-57.33C163.07,117.43,151.19,115.94,139.25,115.86Z"/><path class="cls-1" d="M116.92,34.36l-.44,66.42,11.58,0,4,0a13.36,13.36,0,0,1,26.55-.45c0,.13,0,.26,0,.39l14.95,0-.1-24a26,26,0,0,0-7.42-18.08h0L158.62,51,108.75,0C118.5,10.54,117,22.41,116.92,34.36Z"/></svg>