<svg id="Layer_1" data-name="Layer 1" xmlns="http://www.w3.org/2000/svg" viewBox="0 0 1264.21 179.93"><defs><style>.cls-1,.cls-2{fill:#fff;}.cls-2{font-size:41.55px;font-family:Montserrat-Bold, Montserrat;font-weight:700;}.cls-3{letter-spacing:-0.01em;}</style></defs><path class="cls-1" d="M36.83,144.38V29.29H0v-23H100.44v23h-37V144.38Z"/><path class="cls-1" d="M109.22,35.14V144.37h26.57V35.14Z"/><path class="cls-1" d="M137.86,17.06c0,4-1.29,7.09-3.92,9.23s-6.47,3.22-11.54,3.22q-15.47,0-15.46-12.45c0-8.45,5.15-12.65,15.46-12.65S137.86,8.61,137.86,17.06Z"/><path class="cls-1" d="M198.29,144.6q-18.4,0-30.34-7.53a45.71,45.71,0,0,1-17.68-20.41,69.67,69.67,0,0,1-5.76-28.77,74,74,0,0,1,5.65-29.19,47.64,47.64,0,0,1,17.37-21.24q11.72-8,29.93-7.95,16.31,0,26.57,6.17a36.06,36.06,0,0,1,14.75,16.11A40,40,0,0,1,242,73l-23.23,2.1Q219,63.19,213.05,57t-15.8-6.17a24,24,0,0,0-18.42,8.27q-7.53,8.26-7.53,27.51,0,18.84,7.53,28.15t19.88,9.31q8.79,0,13.81-4a20.76,20.76,0,0,0,7-10.26,32.54,32.54,0,0,0,1.36-13l24.69,1.46a45.81,45.81,0,0,1-3.76,23.13,37,37,0,0,1-15.7,16.84Q215.25,144.6,198.29,144.6Z"/><path class="cls-1" d="M254.49,144.38V0h25.95V78.26a66.86,66.86,0,0,0,19.25-11.93A72.23,72.23,0,0,0,313,50.74a47.68,47.68,0,0,0,6.59-15.8H349.7A64.08,64.08,0,0,1,340,55.45a82.37,82.37,0,0,1-17.68,18.21A79.77,79.77,0,0,1,297.8,86.21v1.68q13.18-1.47,21.66.41t13.6,6.39a29.75,29.75,0,0,1,7.85,10.88,79.24,79.24,0,0,1,4.39,13.91l5.24,24.9H321.87l-2.72-17.57a66.25,66.25,0,0,0-3.77-14.44A20.91,20.91,0,0,0,307,102.32q-5.86-3.76-16.95-3.76h-9.62v45.82Z"/><path class="cls-1" d="M404.11,144.6q-18.84,0-30.66-7.43a44.2,44.2,0,0,1-17.37-20.09,69.89,69.89,0,0,1-5.54-28.35A77.87,77.87,0,0,1,356,59.33a48.09,48.09,0,0,1,16.84-21.66q11.4-8.16,29.4-8.16,17.16,0,28.25,7.74a42,42,0,0,1,15.8,21.24Q451,72,448.68,89.56l-72.4,1q1.25,33.48,28.25,33.48c5.85,0,10.46-1.11,13.8-3.35a17.71,17.71,0,0,0,7-8.58,24.94,24.94,0,0,0,1.57-10.88l24.49,1.47a42.14,42.14,0,0,1-4.19,20.09q-4.6,9.61-15.17,15.69T404.11,144.6Zm-1.89-93.54q-10.87,0-16.84,6.49t-8.06,17.37l47.29-.84q-.84-10.87-6.38-16.95T402.22,51.06Z"/><path class="cls-1" d="M653.15,35.15l-18.83,86.64h-1.05L615.49,35.15H585.77l-18.62,86.64h-1.26L548.32,35.15H490.56V10.88H474.45L474,16.11q-.84,10.68-5.23,16T454.57,38.5h-3.14V56.29H464.2v53.78a58.58,58.58,0,0,0,1.36,12.24,35.57,35.57,0,0,0,4.91,11.93,25.86,25.86,0,0,0,10.36,9q6.8,3.47,17.68,3.46a57,57,0,0,0,8.79-.73,76.86,76.86,0,0,0,10.05-2.41V119.48a19.82,19.82,0,0,1-6.39,2.83,26.63,26.63,0,0,1-6.59.94,14.76,14.76,0,0,1-9.83-3.35q-4-3.34-4-11.92V56.92h35.3l22.46,87.46h34.73l16.53-80.77h1l15.9,80.77h35L679.94,35.15Z"/><path class="cls-1" d="M707.38,147.32a41.47,41.47,0,0,1-15.8-3,26,26,0,0,1-11.92-9.63q-4.51-6.59-4.5-17.26,0-9.83,3.76-16.11a28.41,28.41,0,0,1,10.26-10,57.45,57.45,0,0,1,14.54-5.85q8.06-2.1,16.64-3.56,11.29-1.89,16.95-3.14c3.76-.84,6.28-1.85,7.53-3a6.43,6.43,0,0,0,1.88-4.91q0-8.16-5.75-12.56t-14.33-4.39A28.6,28.6,0,0,0,716,55.87a20.09,20.09,0,0,0-8.79,6.91Q703.62,67.6,703.41,76l-23.86-2.3q.21-11.94,4.5-20a34.69,34.69,0,0,1,11.3-12.76,46.75,46.75,0,0,1,15.38-6.7,71.65,71.65,0,0,1,16.53-2q21.76,0,33.48,12t11.72,35.46V99.81q.21,11.1.21,22.29v22.28H749.23q.21-8.56.53-16.95t.52-17.57h-1.46a44.34,44.34,0,0,1-6.7,18.94,40.4,40.4,0,0,1-14.33,13.49A40.82,40.82,0,0,1,707.38,147.32ZM717,127a28.34,28.34,0,0,0,13.5-3.66,30.3,30.3,0,0,0,11.4-11.2q4.61-7.53,4.81-19.25V91A47.11,47.11,0,0,1,736.57,94q-5.75,1-11.82,2.1A66.63,66.63,0,0,0,713.45,99a21.79,21.79,0,0,0-8.47,5.23q-3.26,3.35-3.25,9.2,0,6.5,4.19,10T717,127Z"/><path class="cls-1" d="M779.56,144.29V121.9l55.87-63.82V56.82H780.82V35.06h86v22.6l-55.66,63.82v1h56.08v21.76Z"/><path class="cls-1" d="M925.17,144.6q-18.84,0-30.66-7.43a44.12,44.12,0,0,1-17.36-20.09,69.89,69.89,0,0,1-5.55-28.35A77.87,77.87,0,0,1,877,59.33a48.16,48.16,0,0,1,16.84-21.66q11.42-8.16,29.41-8.16,17.15,0,28.25,7.74a42,42,0,0,1,15.79,21.24Q972,72,969.74,89.56l-72.4,1q1.26,33.48,28.25,33.48,8.79,0,13.81-3.35a17.76,17.76,0,0,0,7-8.58A25.09,25.09,0,0,0,948,101.28l24.48,1.47a42.14,42.14,0,0,1-4.18,20.09q-4.6,9.61-15.17,15.69T925.17,144.6Zm-1.88-93.54q-10.89,0-16.85,6.49t-8.05,17.37l47.29-.84q-.84-10.87-6.39-16.95T923.29,51.06Z"/><text class="cls-2" transform="translate(984.36 172)">O<tspan class="cls-3" x="35.06" y="0">r</tspan><tspan x="52.6" y="0">ganisation</tspan></text></svg>