<svg width="100" height="100" viewBox="0 0 100 100" fill="none" xmlns="http://www.w3.org/2000/svg">
<path d="M53.4601 14.4698C51.957 12.8804 50.7863 12.4992 50 12.4992C49.2137 12.4992 48.043 12.8804 46.5399 14.4698C45.0285 16.068 43.4754 18.6043 42.0835 22.0838C39.6612 28.1397 37.9747 36.4304 37.5857 45.8325L62.4143 45.8325C62.0253 36.4304 60.3388 28.1397 57.9165 22.0838C56.5246 18.6043 54.9715 16.068 53.4601 14.4698Z" fill="#E45B00"/>
<path d="M62.4143 54.1658L37.5857 54.1658C37.9747 63.568 39.6612 71.8586 42.0835 77.9145C43.4754 81.394 45.0285 83.9303 46.5399 85.5285C48.043 87.1179 49.2137 87.4992 50 87.4992C50.7863 87.4992 51.957 87.1179 53.4601 85.5285C54.9715 83.9303 56.5246 81.394 57.9165 77.9145C60.3388 71.8586 62.0253 63.568 62.4143 54.1658Z" fill="#E45B00"/>
<path d="M29.2458 45.8325C29.6384 35.5526 31.4725 26.1731 34.3462 18.9889C35.7973 15.3612 37.5788 12.1286 39.708 9.61328C22.9769 13.8641 10.2859 28.2385 8.53906 45.8325H29.2458Z" fill="#E45B00"/>
<path d="M8.53906 54.1658H29.2458C29.6384 64.4457 31.4725 73.8252 34.3462 81.0094C35.7973 84.6371 37.5788 87.8697 39.708 90.385C22.9769 86.1342 10.2859 71.7598 8.53906 54.1658Z" fill="#E45B00"/>
<path d="M70.7542 54.1658H91.4609C89.7141 71.7598 77.0231 86.1342 60.292 90.385C62.4212 87.8697 64.2027 84.6371 65.6538 81.0094C68.5275 73.8252 70.3616 64.4457 70.7542 54.1658Z" fill="#E45B00"/>
<path d="M91.4609 45.8325C89.7141 28.2385 77.0231 13.8641 60.292 9.61328C62.4212 12.1286 64.2027 15.3612 65.6538 18.9889C68.5275 26.1731 70.3616 35.5526 70.7542 45.8325H91.4609Z" fill="#E45B00"/>
</svg>
