<svg width="31" height="31" viewBox="0 0 31 31" fill="none" xmlns="http://www.w3.org/2000/svg">
<path d="M15.5 11.1313C13.0813 11.1313 11.1313 13.1 11.1313 15.5C11.1313 17.9 13.1 19.8687 15.5 19.8687C17.9 19.8687 19.8687 17.9 19.8687 15.5C19.8687 13.1 17.9 11.1313 15.5 11.1313ZM28.625 15.5C28.625 13.6812 28.625 11.9 28.5312 10.0813C28.4375 7.98125 27.95 6.10625 26.4125 4.5875C24.875 3.05 23.0188 2.5625 20.9188 2.46875C19.1 2.375 17.3188 2.375 15.5 2.375C13.6812 2.375 11.9 2.375 10.0813 2.46875C7.98125 2.5625 6.10625 3.05 4.5875 4.5875C3.05 6.125 2.5625 7.98125 2.46875 10.0813C2.375 11.9 2.375 13.6812 2.375 15.5C2.375 17.3188 2.375 19.1 2.46875 20.9188C2.5625 23.0188 3.05 24.8937 4.5875 26.4125C6.125 27.95 7.98125 28.4375 10.0813 28.5312C11.9 28.625 13.6812 28.625 15.5 28.625C17.3188 28.625 19.1 28.625 20.9188 28.5312C23.0188 28.4375 24.8937 27.95 26.4125 26.4125C27.95 24.875 28.4375 23.0188 28.5312 20.9188C28.6437 19.1188 28.625 17.3188 28.625 15.5ZM15.5 22.2313C11.7688 22.2313 8.76875 19.2313 8.76875 15.5C8.76875 11.7688 11.7688 8.76875 15.5 8.76875C19.2313 8.76875 22.2313 11.7688 22.2313 15.5C22.2313 19.2313 19.2313 22.2313 15.5 22.2313ZM22.5125 10.0625C21.65 10.0625 20.9375 9.36875 20.9375 8.4875C20.9375 7.60625 21.6313 6.9125 22.5125 6.9125C23.3937 6.9125 24.0875 7.60625 24.0875 8.4875C24.0922 8.69288 24.0548 8.89705 23.9773 9.08734C23.8999 9.27763 23.7843 9.45 23.6375 9.59375C23.4937 9.74051 23.3214 9.85618 23.1311 9.93359C22.9408 10.011 22.7366 10.0485 22.5312 10.0438L22.5125 10.0625Z" fill="white"/>
</svg>
