<svg width="340" height="254" viewBox="0 0 340 254" fill="none" xmlns="http://www.w3.org/2000/svg">
<path fill-rule="evenodd" clip-rule="evenodd" d="M170 85.334C158.494 85.334 149.167 94.6614 149.167 106.167V114.501H136.667V168.667H203.333V114.501H190.833V106.167C190.833 94.6614 181.506 85.334 170 85.334ZM182.5 114.501V106.167C182.5 99.2638 176.904 93.6673 170 93.6673C163.097 93.6673 157.5 99.2638 157.5 106.167V114.501H182.5ZM174.167 131.167V152.001H165.833V131.167H174.167Z" fill="white"/>
<path fill-rule="evenodd" clip-rule="evenodd" d="M290 8.33398C278.494 8.33398 269.167 17.6614 269.167 29.1673V37.5007H256.667V91.6673H323.333V37.5007H310.833V29.1673C310.833 17.6614 301.506 8.33398 290 8.33398ZM302.5 37.5007V29.1673C302.5 22.2638 296.904 16.6673 290 16.6673C283.097 16.6673 277.5 22.2638 277.5 29.1673V37.5007H302.5ZM294.167 54.1673V75.0007H285.833V54.1673H294.167Z" fill="#454A53"/>
<path fill-rule="evenodd" clip-rule="evenodd" d="M50.0001 162.334C38.4941 162.334 29.1667 171.661 29.1667 183.167V191.501H16.6667V245.667H83.3334V191.501H70.8334V183.167C70.8334 171.661 61.506 162.334 50.0001 162.334ZM62.5001 191.501V183.167C62.5001 176.264 56.9036 170.667 50.0001 170.667C43.0965 170.667 37.5001 176.264 37.5001 183.167V191.501H62.5001ZM54.1667 208.167V229.001H45.8334V208.167H54.1667Z" fill="#454A53"/>
</svg>
