<svg width="340" height="254" viewBox="0 0 340 254" fill="none" xmlns="http://www.w3.org/2000/svg">
<path fill-rule="evenodd" clip-rule="evenodd" d="M128.333 93.666H153.333V101.999H136.667V118.666H128.333V93.666ZM186.667 93.666H211.667V118.666H203.334V101.999H186.667V93.666ZM157.5 114.499V139.499H149.167V114.499H157.5ZM174.167 114.499V131.166H165.833V114.499H174.167ZM190.833 114.499V139.499H182.5V114.499H190.833ZM136.667 135.333V151.999H153.333V160.333H128.333V135.333H136.667ZM211.667 135.333V160.333H186.667V151.999H203.334V135.333H211.667Z" fill="white"/>
<path fill-rule="evenodd" clip-rule="evenodd" d="M248.333 16.666H273.333V24.9993H256.667V41.666H248.333V16.666ZM306.667 16.666H331.667V41.666H323.334V24.9993H306.667V16.666ZM277.5 37.4993V62.4993H269.167V37.4993H277.5ZM294.167 37.4993V54.166H285.833V37.4993H294.167ZM310.833 37.4993V62.4993H302.5V37.4993H310.833ZM256.667 58.3327V74.9993H273.333V83.3327H248.333V58.3327H256.667ZM331.667 58.3327V83.3327H306.667V74.9993H323.334V58.3327H331.667Z" fill="#454A53"/>
<path fill-rule="evenodd" clip-rule="evenodd" d="M8.3335 170.666H33.3335V178.999H16.6668V195.666H8.3335V170.666ZM66.6668 170.666H91.6668V195.666H83.3335V178.999H66.6668V170.666ZM37.5002 191.499V216.499H29.1668V191.499H37.5002ZM54.1668 191.499V208.166H45.8335V191.499H54.1668ZM70.8335 191.499V216.499H62.5002V191.499H70.8335ZM16.6668 212.333V228.999H33.3335V237.333H8.3335V212.333H16.6668ZM91.6668 212.333V237.333H66.6668V228.999H83.3335V212.333H91.6668Z" fill="#454A53"/>
</svg>
