<svg width="340" height="254" viewBox="0 0 340 254" fill="none" xmlns="http://www.w3.org/2000/svg">
<path fill-rule="evenodd" clip-rule="evenodd" d="M158.452 96.4374L170 83.1465L181.548 96.4374L198.938 93.6789L199.241 111.283L214.335 120.348L203.251 134.028L208.987 150.675L191.703 154.03L185.397 170.469L170 161.929L154.603 170.469L148.297 154.03L131.013 150.675L136.749 134.028L125.665 120.348L140.76 111.283L141.063 93.6789L158.452 96.4374ZM186.309 120.749L180.417 114.856L165.833 129.44L159.583 123.19L153.691 129.082L165.833 141.225L186.309 120.749Z" fill="white"/>
<path fill-rule="evenodd" clip-rule="evenodd" d="M278.452 19.4374L290 6.14648L301.548 19.4374L318.938 16.6789L319.241 34.2832L334.335 43.3478L323.251 57.0283L328.987 73.6746L311.703 77.03L305.397 93.469L290 84.9293L274.603 93.469L268.297 77.03L251.013 73.6746L256.749 57.0283L245.665 43.3478L260.76 34.2832L261.063 16.6789L278.452 19.4374ZM306.309 43.7488L300.417 37.8563L285.833 52.4396L279.583 46.1896L273.691 52.0822L285.833 64.2247L306.309 43.7488Z" fill="#454A53"/>
<path fill-rule="evenodd" clip-rule="evenodd" d="M38.4521 173.437L50.0001 160.146L61.5481 173.437L78.9376 170.679L79.2406 188.283L94.3349 197.348L83.2512 211.028L88.9874 227.675L71.7032 231.03L65.3974 247.469L50.0001 238.929L34.6028 247.469L28.297 231.03L11.0127 227.675L16.749 211.028L5.66528 197.348L20.7596 188.283L21.0626 170.679L38.4521 173.437ZM66.3092 197.749L60.4166 191.856L45.8333 206.44L39.5833 200.19L33.6907 206.082L45.8333 218.225L66.3092 197.749Z" fill="#454A53"/>
</svg>
