<svg width="31" height="31" viewBox="0 0 31 31" fill="none" xmlns="http://www.w3.org/2000/svg">
<mask id="mask0_2964_72112" style="mask-type:luminance" maskUnits="userSpaceOnUse" x="3" y="3" width="25" height="25">
<path d="M3.625 3.625H27.375V27.375H3.625V3.625Z" fill="white"/>
</mask>
<g mask="url(#mask0_2964_72112)">
<path d="M17.7375 3.80015L17.025 3.70015C14.8837 3.39097 12.6986 3.69684 10.7244 4.5821C8.75028 5.46737 7.06845 6.89555 5.875 8.70015C4.60519 10.4251 3.84823 12.4736 3.69122 14.6098C3.53422 16.7459 3.98354 18.883 4.9875 20.7751C5.09025 20.9648 5.15421 21.173 5.17568 21.3876C5.19714 21.6022 5.17566 21.8189 5.1125 22.0251C4.6 23.7876 4.125 25.5626 3.625 27.4251L4.25 27.2376C5.9375 26.7876 7.625 26.3376 9.3125 25.9251C9.66868 25.8511 10.0389 25.8859 10.375 26.0251C11.889 26.764 13.5435 27.1706 15.2276 27.2174C16.9116 27.2642 18.5862 26.9503 20.1389 26.2967C21.6916 25.6431 23.0866 24.6649 24.2301 23.4278C25.3737 22.1907 26.2394 20.7233 26.7692 19.1241C27.299 17.5249 27.4805 15.8308 27.3017 14.1557C27.1229 12.4805 26.5878 10.8629 25.7324 9.41159C24.877 7.96023 23.7211 6.70864 22.3421 5.7408C20.9632 4.77296 19.3932 4.11128 17.7375 3.80015ZM20.8875 20.2001C20.4332 20.6069 19.8792 20.886 19.282 21.0089C18.6847 21.1319 18.0655 21.0943 17.4875 20.9001C14.8687 20.1616 12.5966 18.5184 11.075 16.2626C10.494 15.4646 10.027 14.5896 9.6875 13.6626C9.50357 13.1249 9.4704 12.547 9.59159 11.9917C9.71279 11.4364 9.98372 10.9249 10.375 10.5126C10.5655 10.2695 10.8248 10.0894 11.1191 9.99579C11.4134 9.90215 11.7291 9.89931 12.025 9.98765C12.275 10.0501 12.45 10.4126 12.675 10.6876C12.8583 11.2043 13.0708 11.7085 13.3125 12.2001C13.4955 12.4508 13.572 12.7636 13.5251 13.0704C13.4783 13.3772 13.312 13.653 13.0625 13.8376C12.5 14.3376 12.5875 14.7501 12.9875 15.3126C13.8713 16.587 15.0917 17.591 16.5125 18.2126C16.9125 18.3876 17.2125 18.4251 17.475 18.0126C17.5875 17.8501 17.7375 17.7126 17.8625 17.5626C18.5875 16.6501 18.3625 16.6626 19.5125 17.1626C19.8792 17.3168 20.2333 17.496 20.575 17.7001C20.9125 17.9001 21.425 18.1126 21.5 18.4126C21.5722 18.7381 21.5532 19.0772 21.4451 19.3925C21.337 19.7079 21.1441 19.9873 20.8875 20.2001Z" fill="white"/>
</g>
</svg>
