<svg width="31" height="31" viewBox="0 0 31 31" fill="none" xmlns="http://www.w3.org/2000/svg">
<path d="M25.6953 26.2637C25.6146 26.4107 25.4959 26.5334 25.3516 26.6189C25.2073 26.7045 25.0427 26.7497 24.875 26.75H19.25C19.0922 26.75 18.937 26.7101 18.7987 26.6341C18.6604 26.5581 18.5436 26.4484 18.459 26.3152L13.714 18.8586L6.81872 26.443C6.65063 26.6235 6.41814 26.7306 6.17166 26.7409C5.92518 26.7512 5.68458 26.6639 5.50201 26.498C5.31945 26.3321 5.20963 26.1009 5.19638 25.8545C5.18313 25.6082 5.26751 25.3666 5.43122 25.182L12.6699 17.2133L5.33395 5.69141C5.2436 5.54966 5.19302 5.38623 5.18752 5.21823C5.18201 5.05023 5.22177 4.88383 5.30264 4.73647C5.38351 4.58911 5.50251 4.4662 5.64718 4.38062C5.79185 4.29503 5.95688 4.24992 6.12497 4.25H11.75C11.9078 4.25005 12.063 4.28992 12.2012 4.36592C12.3395 4.44192 12.4564 4.55159 12.541 4.68477L17.2859 12.1414L24.1812 4.55703C24.3493 4.37647 24.5818 4.26943 24.8283 4.25914C25.0748 4.24884 25.3154 4.33611 25.4979 4.50202C25.6805 4.66793 25.7903 4.89912 25.8036 5.14546C25.8168 5.39179 25.7324 5.63343 25.5687 5.81797L18.33 13.7809L25.666 25.3098C25.7558 25.4516 25.8059 25.6149 25.8111 25.7827C25.8163 25.9505 25.7763 26.1166 25.6953 26.2637Z" fill="white"/>
</svg>
