<svg width="461" height="681" viewBox="0 0 461 681" fill="none" xmlns="http://www.w3.org/2000/svg">
<path fill-rule="evenodd" clip-rule="evenodd" d="M3.08081 2.17065C0.935547 4.31591 0.935547 7.76865 0.935547 14.6741V493.025H24.0073C26.0299 493.025 27.6695 494.665 27.6695 496.687C27.6695 498.71 26.0299 500.35 24.0073 500.35H0.935547V680.025H22.8618C22.8459 679.729 22.8379 679.431 22.8379 679.13C22.8379 670.029 30.2162 662.65 39.3177 662.65C48.4193 662.65 55.7976 670.029 55.7976 679.13C55.7976 679.431 55.7895 679.729 55.7737 680.025H86.7336C86.7177 679.729 86.7097 679.431 86.7097 679.13C86.7097 670.029 94.088 662.65 103.19 662.65C112.291 662.65 119.669 670.029 119.669 679.13C119.669 679.431 119.661 679.729 119.645 680.025H150.605C150.59 679.729 150.581 679.431 150.581 679.13C150.581 670.029 157.96 662.65 167.061 662.65C176.163 662.65 183.541 670.029 183.541 679.13C183.541 679.431 183.533 679.729 183.517 680.025H214.477C214.461 679.729 214.453 679.431 214.453 679.13C214.453 670.029 221.832 662.65 230.933 662.65C240.035 662.65 247.413 670.029 247.413 679.13C247.413 679.431 247.405 679.729 247.389 680.025H278.349C278.333 679.729 278.325 679.431 278.325 679.13C278.325 670.029 285.703 662.65 294.805 662.65C303.906 662.65 311.285 670.029 311.285 679.13C311.285 679.265 311.283 679.398 311.28 679.532C311.276 679.697 311.27 679.862 311.261 680.025H342.221C342.205 679.729 342.197 679.431 342.197 679.13C342.197 670.029 349.575 662.65 358.677 662.65C367.778 662.65 375.157 670.029 375.157 679.13C375.157 679.431 375.149 679.729 375.133 680.025H406.093C406.077 679.729 406.069 679.431 406.069 679.13C406.069 670.029 413.447 662.65 422.549 662.65C431.65 662.65 439.028 670.029 439.028 679.13C439.028 679.431 439.02 679.729 439.004 680.025H460.936L460.936 500.35H440.061C438.038 500.35 436.399 498.71 436.399 496.687C436.399 494.665 438.038 493.025 440.061 493.025H460.936L460.936 14.6741C460.936 7.76865 460.936 4.31591 458.79 2.17065C456.645 0.0253906 453.192 0.0253906 446.287 0.0253906H15.5843C8.67881 0.0253906 5.22607 0.0253906 3.08081 2.17065ZM38.9742 496.687C38.9742 494.665 40.6138 493.025 42.6363 493.025H90.2448C92.2674 493.025 93.907 494.665 93.907 496.687C93.907 498.71 92.2674 500.35 90.2448 500.35H42.6363C40.6138 500.35 38.9742 498.71 38.9742 496.687ZM108.874 493.025C106.851 493.025 105.212 494.665 105.212 496.687C105.212 498.71 106.851 500.35 108.874 500.35H156.482C158.505 500.35 160.144 498.71 160.144 496.687C160.144 494.665 158.505 493.025 156.482 493.025H108.874ZM171.449 496.687C171.449 494.665 173.089 493.025 175.111 493.025H222.72C224.742 493.025 226.382 494.665 226.382 496.687C226.382 498.71 224.742 500.35 222.72 500.35H175.111C173.089 500.35 171.449 498.71 171.449 496.687ZM241.349 493.025C239.326 493.025 237.687 494.665 237.687 496.687C237.687 498.71 239.326 500.35 241.349 500.35H288.957C290.98 500.35 292.619 498.71 292.619 496.687C292.619 494.665 290.98 493.025 288.957 493.025H241.349ZM303.924 496.687C303.924 494.665 305.564 493.025 307.586 493.025H355.195C357.217 493.025 358.857 494.665 358.857 496.687C358.857 498.71 357.217 500.35 355.195 500.35H307.586C305.564 500.35 303.924 498.71 303.924 496.687ZM373.824 493.025C371.801 493.025 370.161 494.665 370.161 496.687C370.161 498.71 371.801 500.35 373.824 500.35H421.432C423.455 500.35 425.094 498.71 425.094 496.687C425.094 494.665 423.455 493.025 421.432 493.025H373.824Z" fill="white"/>
</svg>
