<svg width="20" height="21" viewBox="0 0 20 21" fill="none" xmlns="http://www.w3.org/2000/svg">
<path d="M14.3277 4.16758C13.6356 3.37872 12.3845 3.04053 10.7841 3.04053H6.13905C5.8116 3.04053 5.53335 3.27867 5.48208 3.60157L3.54799 15.8681C3.50954 16.1099 3.69683 16.329 3.942 16.329H6.80965L7.52987 11.7609L7.50755 11.9039C7.55881 11.581 7.83499 11.3429 8.16203 11.3429H9.52474C12.2018 11.3429 14.298 10.2555 14.9103 7.11006C14.9285 7.01704 14.9442 6.92649 14.9578 6.83801C14.8805 6.79708 14.8805 6.79708 14.9578 6.83801C15.1401 5.67541 14.9566 4.88408 14.3277 4.16758Z" fill="#27346A"/>
<path d="M8.62715 6.41919C8.70364 6.38281 8.78881 6.36255 8.87812 6.36255H12.5197C12.951 6.36255 13.3532 6.39067 13.7208 6.44979C13.8262 6.46674 13.9283 6.48617 14.0276 6.5085C14.1268 6.53041 14.2231 6.55522 14.3166 6.58251C14.3633 6.59615 14.4092 6.61021 14.4542 6.62509C14.6349 6.68545 14.8032 6.75574 14.9578 6.83801C15.1401 5.675 14.9566 4.88408 14.3277 4.16758C13.6352 3.37872 12.3845 3.04053 10.7841 3.04053H6.13863C5.8116 3.04053 5.53335 3.27867 5.48208 3.60157L3.54799 15.8676C3.50954 16.1099 3.69683 16.3286 3.94159 16.3286H6.80965L8.30384 6.85331C8.33444 6.65899 8.4593 6.49982 8.62715 6.41919Z" fill="#27346A"/>
<path d="M14.9104 7.10994C14.2981 10.255 12.202 11.3428 9.52491 11.3428H8.16178C7.83475 11.3428 7.55857 11.5809 7.50772 11.9038L6.61178 17.5837C6.57829 17.7954 6.74202 17.9872 6.95618 17.9872H9.37359C9.65969 17.9872 9.90321 17.7789 9.94786 17.4965L9.97143 17.3733L10.427 14.4858L10.4564 14.3262C10.5011 14.0438 10.7446 13.8354 11.0307 13.8354H11.3924C13.7342 13.8354 15.5678 12.8841 16.1036 10.1326C16.3273 8.98284 16.2115 8.02282 15.6199 7.34849C15.4405 7.14425 15.2176 6.97557 14.958 6.83789C14.9439 6.92678 14.9286 7.01691 14.9104 7.10994Z" fill="#2790C3"/>
<path d="M14.3168 6.5825C14.2234 6.55521 14.1271 6.53041 14.0278 6.50849C13.9286 6.48658 13.8261 6.46715 13.7211 6.4502C13.3531 6.39066 12.9512 6.36255 12.5196 6.36255H8.87838C8.78866 6.36255 8.70349 6.38281 8.62742 6.4196C8.45915 6.50023 8.3347 6.65899 8.30411 6.85372L7.53014 11.7609L7.50781 11.9039C7.55867 11.581 7.83485 11.3429 8.16188 11.3429H9.52501C12.2021 11.3429 14.2982 10.2555 14.9105 7.11006C14.9287 7.01703 14.944 6.9269 14.9581 6.83801C14.803 6.75615 14.6352 6.68545 14.4545 6.6255C14.4094 6.61062 14.3635 6.59614 14.3168 6.5825Z" fill="#1F264F"/>
</svg>
