<svg width="30" height="30" viewBox="0 0 30 30" fill="none" xmlns="http://www.w3.org/2000/svg">
<path opacity="0.4" d="M20.2367 2.5H9.77423C5.22423 2.5 2.51172 5.2125 2.51172 9.7625V20.225C2.51172 24.775 5.22423 27.4875 9.77423 27.4875H20.2367C24.7867 27.4875 27.4992 24.775 27.4992 20.225V9.7625C27.4992 5.2125 24.7867 2.5 20.2367 2.5Z" fill="#E45B00"/>
<path d="M11.4625 17.6129C11.7 17.6129 11.9375 17.5254 12.125 17.3379L17.6 11.8629V14.9004C17.6 15.4129 18.025 15.8379 18.5375 15.8379C19.05 15.8379 19.475 15.4129 19.475 14.9004V9.60039C19.475 9.47539 19.45 9.36289 19.4 9.23789C19.3 9.01289 19.125 8.8254 18.8875 8.7254C18.775 8.6754 18.65 8.65039 18.525 8.65039H13.225C12.7125 8.65039 12.2875 9.07539 12.2875 9.58789C12.2875 10.1004 12.7125 10.5254 13.225 10.5254H16.2625L10.7875 16.0004C10.425 16.3629 10.425 16.9629 10.7875 17.3254C10.9875 17.5254 11.225 17.6129 11.4625 17.6129Z" fill="#E45B00"/>
<path d="M23.3864 20.3504C23.2239 19.8629 22.6989 19.6004 22.1989 19.7629C17.5489 21.3129 12.4364 21.3129 7.78638 19.7629C7.29888 19.6004 6.76138 19.8629 6.59888 20.3504C6.43638 20.8379 6.69888 21.3755 7.18638 21.538C9.69888 22.3755 12.3364 22.8004 14.9864 22.8004C17.6364 22.8004 20.2739 22.3755 22.7864 21.538C23.2864 21.363 23.5489 20.8379 23.3864 20.3504Z" fill="#E45B00"/>
</svg>
