<svg width="30" height="30" viewBox="0 0 30 30" fill="none" xmlns="http://www.w3.org/2000/svg">
<path opacity="0.4" d="M25.625 12.7375H22.0125C19.05 12.7375 16.6375 10.325 16.6375 7.3625V3.75C16.6375 3.0625 16.075 2.5 15.3875 2.5H10.0875C6.2375 2.5 3.125 5 3.125 9.4625V20.5375C3.125 25 6.2375 27.5 10.0875 27.5H19.9125C23.7625 27.5 26.875 25 26.875 20.5375V13.9875C26.875 13.3 26.3125 12.7375 25.625 12.7375Z" fill="#E45B00"/>
<path d="M19.7496 2.76261C19.2371 2.25011 18.3496 2.60011 18.3496 3.31261V7.67511C18.3496 9.50011 19.8996 11.0126 21.7871 11.0126C22.9746 11.0251 24.6246 11.0251 26.0371 11.0251C26.7496 11.0251 27.1246 10.1876 26.6246 9.68761C24.8246 7.87511 21.5996 4.61261 19.7496 2.76261Z" fill="#E45B00"/>
<path d="M14.4133 15.5875L11.9133 13.0875C11.9008 13.075 11.8883 13.075 11.8883 13.0625C11.8133 12.9875 11.7133 12.925 11.6133 12.875C11.6008 12.875 11.6008 12.875 11.5883 12.875C11.4883 12.8375 11.3883 12.825 11.2883 12.8125C11.2508 12.8125 11.2258 12.8125 11.1883 12.8125C11.1133 12.8125 11.0258 12.8375 10.9508 12.8625C10.9133 12.875 10.8883 12.8875 10.8633 12.9C10.7633 12.95 10.6633 13 10.5883 13.0875L8.08828 15.5875C7.72578 15.95 7.72578 16.55 8.08828 16.9125C8.45078 17.275 9.05078 17.275 9.41328 16.9125L10.3133 16.0125V21.25C10.3133 21.7625 10.7383 22.1875 11.2508 22.1875C11.7633 22.1875 12.1883 21.7625 12.1883 21.25V16.0125L13.0883 16.9125C13.2758 17.1 13.5133 17.1875 13.7508 17.1875C13.9883 17.1875 14.2258 17.1 14.4133 16.9125C14.7758 16.55 14.7758 15.95 14.4133 15.5875Z" fill="#E45B00"/>
</svg>
