<svg width="21" height="20" viewBox="0 0 21 20" fill="none" xmlns="http://www.w3.org/2000/svg">
<path d="M8.58341 7.56659V5.20825C8.24175 5.20825 7.95841 4.92492 7.95841 4.58325V2.70825H6.08341C2.40841 2.70825 1.29175 3.82492 1.29175 7.49992V7.91658C1.29175 8.25825 1.57508 8.54158 1.91675 8.54158C2.71675 8.54158 3.37508 9.19992 3.37508 9.99992C3.37508 10.7999 2.71675 11.4583 1.91675 11.4583C1.57508 11.4583 1.29175 11.7416 1.29175 12.0833V12.4999C1.29175 16.1749 2.40841 17.2916 6.08341 17.2916H7.95841V15.4166C7.95841 15.0749 8.24175 14.7916 8.58341 14.7916V12.4333C8.24175 12.4333 7.95841 12.1499 7.95841 11.8083V8.19159C7.95841 7.84992 8.24175 7.56659 8.58341 7.56659Z" fill="#737C8A"/>
<path opacity="0.4" d="M17.1249 10.4166C17.1249 11.2166 17.7833 11.8749 18.5833 11.8749C18.9249 11.8749 19.2083 12.1583 19.2083 12.4999C19.2083 16.1749 18.0916 17.2916 14.4166 17.2916H9.20825V15.4166C9.20825 15.0749 8.92492 14.7916 8.58325 14.7916V12.4333C8.92492 12.4333 9.20825 12.1499 9.20825 11.8083V8.19159C9.20825 7.84992 8.92492 7.56659 8.58325 7.56659V5.20825C8.92492 5.20825 9.20825 4.92492 9.20825 4.58325V2.70825H14.4166C18.0916 2.70825 19.2083 3.82492 19.2083 7.49992V8.33325C19.2083 8.67492 18.9249 8.95825 18.5833 8.95825C17.7833 8.95825 17.1249 9.61659 17.1249 10.4166Z" fill="#737C8A"/>
</svg>
