<svg width="30" height="30" viewBox="0 0 30 30" fill="none" xmlns="http://www.w3.org/2000/svg">
<path fill-rule="evenodd" clip-rule="evenodd" d="M24.7144 10.111C24.7229 10.3296 24.7257 10.5482 24.7257 10.7668C24.7257 17.3945 20.0634 25.0459 11.5377 25.0459C8.91872 25.0459 6.48347 24.2112 4.43164 22.7902C4.79434 22.83 5.16269 22.8598 5.53669 22.8598C7.70816 22.8598 9.70818 22.0548 11.2946 20.7034C9.26635 20.6736 7.55367 19.2129 6.96299 17.2256C7.24656 17.2852 7.53858 17.3151 7.83721 17.3151C8.25832 17.3151 8.66718 17.2556 9.05908 17.1363C6.93659 16.6792 5.33792 14.6522 5.33792 12.2177C5.33792 12.1879 5.33792 12.1779 5.33792 12.158C5.96345 12.5257 6.67941 12.7541 7.43966 12.7839C6.19425 11.8797 5.37558 10.3396 5.37558 8.60064C5.37558 7.68647 5.60356 6.82194 6.00488 6.07669C8.29034 9.11731 11.7073 11.1146 15.5594 11.3233C15.4802 10.9556 15.4397 10.5682 15.4397 10.1807C15.4397 7.40833 17.5151 5.1626 20.0756 5.1626C21.4087 5.1626 22.6126 5.76882 23.4577 6.74261C24.5156 6.52401 25.5067 6.1067 26.4035 5.53037C26.0559 6.7029 25.322 7.68642 24.363 8.30249C25.3013 8.18325 26.1963 7.91517 27.0263 7.5177C26.4035 8.5213 25.6197 9.40553 24.7144 10.111Z" fill="#0D0D0D"/>
</svg>
