<svg width="30" height="30" viewBox="0 0 30 30" fill="none" xmlns="http://www.w3.org/2000/svg">
<path fill-rule="evenodd" clip-rule="evenodd" d="M16.0259 3.69805C18.8119 3.83497 21.408 4.98384 23.3908 6.96799C25.5058 9.08431 26.67 11.8975 26.6688 14.8892C26.6663 21.0628 21.6405 26.0859 15.4665 26.0859C13.1448 26.0859 11.2998 25.3725 10.1085 24.7231L4.16992 26.2801L5.75922 20.4779C4.77889 18.7799 4.26304 16.8538 4.26385 14.8803C4.26633 8.70683 9.29172 3.6842 15.4663 3.6842L16.0259 3.69805ZM10.3836 22.696L10.7237 22.8977C12.1532 23.7456 13.7919 24.1943 15.4627 24.1949H15.4664C20.5984 24.1949 24.7753 20.02 24.7774 14.8885C24.7783 12.4019 23.8108 10.0637 22.0528 8.30463C20.2949 6.54548 17.9571 5.57613 15.4702 5.57533C10.3342 5.57533 6.15731 9.74981 6.15527 14.8809C6.15457 16.6394 6.64681 18.352 7.57885 19.8336L7.80024 20.1858L6.85962 23.62L10.3836 22.696ZM21.1101 17.5517C21.0402 17.4349 20.8536 17.365 20.5737 17.2249C20.2938 17.0849 18.9176 16.4081 18.6611 16.3146C18.4045 16.2214 18.2179 16.1747 18.0313 16.4547C17.8447 16.7348 17.3083 17.365 17.1449 17.5517C16.9817 17.7384 16.8184 17.7618 16.5386 17.6217C16.2586 17.4818 15.3567 17.1863 14.2876 16.2331C13.4555 15.4913 12.8937 14.5751 12.7304 14.295C12.5672 14.015 12.713 13.8635 12.8531 13.7241C12.9791 13.5987 13.1331 13.3973 13.273 13.2339C13.413 13.0706 13.4596 12.9538 13.5529 12.7672C13.6462 12.5804 13.5996 12.4171 13.5296 12.2771C13.4596 12.137 12.8998 10.7599 12.6666 10.1997C12.4393 9.6542 12.2086 9.72805 12.0368 9.71943C11.8737 9.71135 11.6869 9.70957 11.5003 9.70957C11.3137 9.70957 11.0105 9.77954 10.7539 10.0597C10.4973 10.3397 9.77421 11.0166 9.77421 12.3936C9.77421 13.7708 10.7772 15.101 10.9172 15.2878C11.0571 15.4746 12.8909 18.3003 15.6988 19.5122C16.3666 19.8005 16.888 19.9726 17.2945 20.1015C17.9651 20.3145 18.5753 20.2845 19.0576 20.2124C19.5954 20.1321 20.7137 19.5356 20.9469 18.8822C21.1801 18.2285 21.1801 17.6684 21.1101 17.5517Z" fill="#0D0D0D"/>
</svg>
