<svg width="30" height="30" viewBox="0 0 30 30" fill="none" xmlns="http://www.w3.org/2000/svg">
<g clip-path="url(#clip0_2960_44740)">
<path d="M30 15C30 23.2842 23.2842 30 15 30C6.71578 30 0 23.2842 0 15C0 6.71578 15 0 15 0C15 0 30 6.71578 30 15Z" fill="#A2001D"/>
<path d="M0 15C0 6.71578 6.71578 0 15 0C23.2842 0 30 6.71578 30 15" fill="#0052B4"/>
<path d="M20.2174 18.9131L15.0001 18.2609L9.78271 18.9131V11.0869H20.2174V18.9131Z" fill="#F0F0F0"/>
<path d="M14.9998 18.2609C16.4406 18.2609 17.6085 17.0929 17.6085 15.6522C17.6085 14.2114 16.4406 13.0434 14.9998 13.0434C13.5591 13.0434 12.3911 14.2114 12.3911 15.6522C12.3911 17.0929 13.5591 18.2609 14.9998 18.2609Z" fill="#0052B4"/>
<path d="M15.0002 16.9565C15.7205 16.9565 16.3045 16.3725 16.3045 15.6521C16.3045 14.9318 15.7205 14.3478 15.0002 14.3478C14.2798 14.3478 13.6958 14.9318 13.6958 15.6521C13.6958 16.3725 14.2798 16.9565 15.0002 16.9565Z" fill="#A2001D"/>
<path d="M13.0435 12.3913H16.9565L15 14.3479L13.0435 12.3913Z" fill="#6DA544"/>
<path d="M14.3477 13.6956H15.652V17.6087H14.3477V13.6956Z" fill="#FFDA44"/>
<path d="M17.087 17.2174H12.913L9.78271 18.9131H20.2174L17.087 17.2174Z" fill="#6DA544"/>
</g>
<defs>
<clipPath id="clip0_2960_44740">
<rect width="30" height="30" fill="white"/>
</clipPath>
</defs>
</svg>
